<?xml version="1.0" encoding="UTF-8" standalone="no"?>
<svg
   version="1.0"
   width="5086.000000pt"
   height="2424.000000pt"
   viewBox="0 0 5086.000000 2424.000000"
   preserveAspectRatio="xMidYMid meet"
   id="svg1"
   sodipodi:docname="Cart_handle.svg"
   inkscape:version="1.4.2 (f4327f4, 2025-05-13)"
   xmlns:inkscape="http://www.inkscape.org/namespaces/inkscape"
   xmlns:sodipodi="http://sodipodi.sourceforge.net/DTD/sodipodi-0.dtd"
   xmlns="http://www.w3.org/2000/svg"
   xmlns:svg="http://www.w3.org/2000/svg">
  <defs
     id="defs1" />
  <sodipodi:namedview
     id="namedview1"
     pagecolor="#ffffff"
     bordercolor="#000000"
     borderopacity="0.25"
     inkscape:showpageshadow="2"
     inkscape:pageopacity="0.0"
     inkscape:pagecheckerboard="0"
     inkscape:deskcolor="#d1d1d1"
     inkscape:document-units="pt"
     inkscape:zoom="0.125"
     inkscape:cx="3632"
     inkscape:cy="572"
     inkscape:window-width="1920"
     inkscape:window-height="991"
     inkscape:window-x="-9"
     inkscape:window-y="-9"
     inkscape:window-maximized="1"
     inkscape:current-layer="g1" />
  <g
     transform="translate(0.000000,2424.000000) scale(0.100000,-0.100000)"
     fill="#000000"
     stroke="none"
     id="g1"
     inkscape:label="Cart handle">
    <path
       d="M31690 19475 l0 -55 9443 -2 9442 -3 48 -33 c102 -71 122 -134 122 -387 0 -253 -20 -316 -122 -387 l-48 -33 -9442 -3 -9443 -2 0 -55 0 -55 9448 2 9447 3 45 21 c158 74 230 234 230 509 0 275 -72 435 -230 509 l-45 21 -9447 3 -9448 2 0 -55z"
       id="path1"
       inkscape:label="Handle" />
    <path
       style="fill:#ced3d4;stroke:#c2c9ca;stroke-width:0;stroke-linejoin:round;paint-order:stroke fill markers;fill-opacity:1"
       d="m 31690.019,18506.719 v 962.962 h 18890.544 c 0,0 265.687,-89.681 216.937,-464.681 -48.75,-375 -198.75,-487.5 -198.75,-487.5"
       id="path2" />
  </g>
</svg>
