<?xml version="1.0" encoding="UTF-8" standalone="no"?>
<svg
   version="1.0"
   width="3258.000000pt"
   height="2424.000000pt"
   viewBox="0 0 3258.000000 2424.000000"
   preserveAspectRatio="xMidYMid meet"
   id="svg29"
   sodipodi:docname="Cart_3.svg"
   inkscape:version="1.4.2 (f4327f4, 2025-05-13)"
   xmlns:inkscape="http://www.inkscape.org/namespaces/inkscape"
   xmlns:sodipodi="http://sodipodi.sourceforge.net/DTD/sodipodi-0.dtd"
   xmlns:xlink="http://www.w3.org/1999/xlink"
   xmlns="http://www.w3.org/2000/svg"
   xmlns:svg="http://www.w3.org/2000/svg">
  <defs
     id="defs29" />
  <sodipodi:namedview
     id="namedview29"
     pagecolor="#ffffff"
     bordercolor="#000000"
     borderopacity="0.25"
     inkscape:showpageshadow="2"
     inkscape:pageopacity="0.0"
     inkscape:pagecheckerboard="0"
     inkscape:deskcolor="#d1d1d1"
     inkscape:document-units="pt"
     inkscape:zoom="0.25"
     inkscape:cx="2064"
     inkscape:cy="2754"
     inkscape:window-width="1920"
     inkscape:window-height="991"
     inkscape:window-x="-9"
     inkscape:window-y="-9"
     inkscape:window-maximized="1"
     inkscape:current-layer="g29"
     showgrid="false" />
  <g
     id="g36"
     inkscape:label="Colors">
    <rect
       style="fill:#786e66;fill-opacity:1;stroke:#c2c9ca;stroke-width:0;stroke-linejoin:round;stroke-dasharray:none;stroke-opacity:1;paint-order:stroke fill markers"
       id="rect56"
       width="1023.1875"
       height="128.0625"
       x="1117.3125"
       y="1891.875"
       inkscape:label="Wheel support (color)" />
    <path
       style="fill:#bfc6c7;stroke:#200011;stroke-width:11.82;stroke-linejoin:round;paint-order:stroke fill markers;fill-opacity:1"
       d="M 2605.4095,8385.8063 V 21088.563 H 29980.225 V 8364.375 Z"
       id="path35"
       transform="matrix(0.1,0,0,-0.1,0,2424)"
       inkscape:label="Cart (color)" />
    <path
       style="fill:#aaa7a2;fill-opacity:1;stroke:#200011;stroke-width:1.182;stroke-linejoin:round;paint-order:stroke fill markers"
       d="M 82.816402,11.824219 V 1888.9219 H 3176.528 V 10.5 H 82.6875 v 1572.005 h 178.125 V 316.21875 H 875.8401 V 1583.625 H 1037.25 V 316.07673 H 2222.0625 V 1585.1567 h 159.6499 V 316.125 h 617.8345 V 1580.4665 H 261.84375 V 317.00481 H 3177.8438 V 9.984375 H 82.897222 Z"
       id="path36"
       inkscape:label="Steel bands (color)" />
    <g
       id="g57"
       inkscape:label="Steel bands screws (color)">
      <use
         x="0"
         y="0"
         xlink:href="#path57"
         id="use60"
         inkscape:label="Screw_B.4"
         transform="matrix(-0.99999998,0,0,0.99999998,3259.8846,-1.4233282e-4)" />
      <ellipse
         style="fill:#bdbbb8;fill-opacity:1;stroke:#c2c9ca;stroke-width:0;stroke-linejoin:round;stroke-dasharray:none;stroke-opacity:1;paint-order:stroke fill markers"
         id="ellipse57"
         cx="1959.0073"
         cy="1738.8613"
         rx="90.42128"
         ry="90.686447"
         inkscape:label="Screw_B.3" />
      <ellipse
         style="fill:#bdbbb8;fill-opacity:1;stroke:#c2c9ca;stroke-width:0;stroke-linejoin:round;stroke-dasharray:none;stroke-opacity:1;paint-order:stroke fill markers"
         id="path56"
         cx="1298.8083"
         cy="1738.8613"
         rx="90.42128"
         ry="90.686447"
         inkscape:label="Screw_B.2" />
      <path
         style="fill:#bdbbb8;fill-opacity:1;stroke:#c2c9ca;stroke-width:0;stroke-linejoin:round;stroke-dasharray:none;stroke-opacity:1;paint-order:stroke fill markers"
         d="m 77.759647,1647.8019 c 0,0 -73.634647,-1.5519 -73.634647,88.4481 0,90 70.5,93.75 70.5,93.75"
         id="path57"
         inkscape:label="Screw_B.1" />
      <use
         x="0"
         y="0"
         xlink:href="#path57"
         id="use57"
         inkscape:label="Screw_T.6"
         transform="matrix(-1,0,0,1,3259.8846,-1581.5002)" />
      <ellipse
         style="fill:#bdbbb8;fill-opacity:1;stroke:#c2c9ca;stroke-width:0;stroke-linejoin:round;stroke-dasharray:none;stroke-opacity:1;paint-order:stroke fill markers"
         id="ellipse63"
         cx="2619.9128"
         cy="156.98645"
         rx="90.42128"
         ry="90.686447"
         inkscape:label="Screw_T.5" />
      <ellipse
         style="fill:#bdbbb8;fill-opacity:1;stroke:#c2c9ca;stroke-width:0;stroke-linejoin:round;stroke-dasharray:none;stroke-opacity:1;paint-order:stroke fill markers"
         id="ellipse60"
         cx="1959.0073"
         cy="156.98645"
         rx="90.42128"
         ry="90.686447"
         inkscape:label="Screw_T.4" />
      <ellipse
         style="fill:#bdbbb8;fill-opacity:1;stroke:#c2c9ca;stroke-width:0;stroke-linejoin:round;stroke-dasharray:none;stroke-opacity:1;paint-order:stroke fill markers"
         id="ellipse61"
         cx="1298.8083"
         cy="156.98645"
         rx="90.42128"
         ry="90.686447"
         inkscape:label="Screw_T.3" />
      <ellipse
         style="fill:#bdbbb8;fill-opacity:1;stroke:#c2c9ca;stroke-width:0;stroke-linejoin:round;stroke-dasharray:none;stroke-opacity:1;paint-order:stroke fill markers"
         id="ellipse62"
         cx="638.90826"
         cy="156.98645"
         rx="90.42128"
         ry="90.686447"
         inkscape:label="Screw_T.2" />
      <use
         x="0"
         y="0"
         xlink:href="#path57"
         id="use58"
         inkscape:label="Screw_T.1"
         transform="translate(0,-1581.5002)" />
    </g>
    <g
       id="g38"
       inkscape:label="Wheel.B (color)"
       transform="rotate(33.75,1628.65,-1270.7705)">
      <ellipse
         style="fill:#ced3d4;fill-opacity:1;stroke:#200011;stroke-width:0;stroke-linejoin:round;stroke-dasharray:none;paint-order:stroke fill markers"
         id="path37"
         ry="468.65625"
         rx="468.75"
         cy="1947"
         cx="2604.75"
         inkscape:label="Wheel (color)" />
      <ellipse
         style="fill:#ced3d4;fill-opacity:1;stroke:#c2c9ca;stroke-width:206.6;stroke-linejoin:round;stroke-dasharray:none;stroke-opacity:1;paint-order:stroke fill markers"
         id="ellipse38"
         ry="309.55722"
         rx="307.52966"
         cy="1947"
         cx="2604.75"
         inkscape:label="Inner wheel (color)" />
      <g
         id="g39"
         inkscape:label="Wheel screws (color)">
        <ellipse
           style="fill:#dae0e3;fill-opacity:1;stroke:#c2c9ca;stroke-width:0;stroke-linejoin:round;stroke-dasharray:none;stroke-opacity:1;paint-order:stroke fill markers"
           id="ellipse41"
           cx="2426.4153"
           cy="1766.1555"
           rx="22.545025"
           ry="23.201954"
           inkscape:label="Screw.8" />
        <ellipse
           style="fill:#dae0e3;fill-opacity:1;stroke:#c2c9ca;stroke-width:0;stroke-linejoin:round;stroke-dasharray:none;stroke-opacity:1;paint-order:stroke fill markers"
           id="ellipse45"
           cx="2351.1355"
           cy="1946.3718"
           rx="22.545025"
           ry="23.201954"
           inkscape:label="Screw.7" />
        <ellipse
           style="fill:#dae0e3;fill-opacity:1;stroke:#c2c9ca;stroke-width:0;stroke-linejoin:round;stroke-dasharray:none;stroke-opacity:1;paint-order:stroke fill markers"
           id="ellipse44"
           cx="2424.9167"
           cy="2124.9656"
           rx="22.545025"
           ry="23.201954"
           inkscape:label="Screw.6" />
        <ellipse
           style="fill:#dae0e3;fill-opacity:1;stroke:#c2c9ca;stroke-width:0;stroke-linejoin:round;stroke-dasharray:none;stroke-opacity:1;paint-order:stroke fill markers"
           id="ellipse43"
           cx="2605.6667"
           cy="2199.9656"
           rx="22.545025"
           ry="23.201954"
           inkscape:label="Screw.5" />
        <ellipse
           style="fill:#dae0e3;fill-opacity:1;stroke:#c2c9ca;stroke-width:0;stroke-linejoin:round;stroke-dasharray:none;stroke-opacity:1;paint-order:stroke fill markers"
           id="ellipse42"
           cx="2783.9902"
           cy="2126.78"
           rx="22.545025"
           ry="23.201954"
           inkscape:label="Screw.4" />
        <ellipse
           style="fill:#dae0e3;fill-opacity:1;stroke:#c2c9ca;stroke-width:0;stroke-linejoin:round;stroke-dasharray:none;stroke-opacity:1;paint-order:stroke fill markers"
           id="ellipse40"
           cx="2859.7402"
           cy="1946.0302"
           rx="22.545025"
           ry="23.201954"
           inkscape:label="Screw.3" />
        <ellipse
           style="fill:#dae0e3;fill-opacity:1;stroke:#c2c9ca;stroke-width:0;stroke-linejoin:round;stroke-dasharray:none;stroke-opacity:1;paint-order:stroke fill markers"
           id="ellipse39"
           cx="2785.4902"
           cy="1767.9052"
           rx="22.545025"
           ry="23.201954"
           inkscape:label="Screw.2" />
        <ellipse
           style="fill:#dae0e3;fill-opacity:1;stroke:#c2c9ca;stroke-width:0;stroke-linejoin:round;stroke-dasharray:none;stroke-opacity:1;paint-order:stroke fill markers"
           id="path38"
           cx="2605.1152"
           cy="1693.4677"
           rx="22.545025"
           ry="23.201954"
           inkscape:label="Screw.1" />
      </g>
    </g>
    <g
       id="g56"
       inkscape:label="Wheel.F (color)"
       transform="rotate(33.75,2604.75,1947)">
      <ellipse
         style="fill:#ced3d4;fill-opacity:1;stroke:#200011;stroke-width:0;stroke-linejoin:round;stroke-dasharray:none;paint-order:stroke fill markers"
         id="ellipse46"
         ry="468.65625"
         rx="468.75"
         cy="1947"
         cx="2604.75"
         inkscape:label="Wheel (color)" />
      <ellipse
         style="fill:#ced3d4;fill-opacity:1;stroke:#c2c9ca;stroke-width:206.6;stroke-linejoin:round;stroke-dasharray:none;stroke-opacity:1;paint-order:stroke fill markers"
         id="ellipse47"
         ry="309.55722"
         rx="307.52966"
         cy="1947"
         cx="2604.75"
         inkscape:label="Inner wheel (color)" />
      <g
         id="g55"
         inkscape:label="Wheel screws (color)">
        <ellipse
           style="fill:#dae0e3;fill-opacity:1;stroke:#c2c9ca;stroke-width:0;stroke-linejoin:round;stroke-dasharray:none;stroke-opacity:1;paint-order:stroke fill markers"
           id="ellipse48"
           cx="2426.4153"
           cy="1766.1555"
           rx="22.545025"
           ry="23.201954"
           inkscape:label="Screw.8" />
        <ellipse
           style="fill:#dae0e3;fill-opacity:1;stroke:#c2c9ca;stroke-width:0;stroke-linejoin:round;stroke-dasharray:none;stroke-opacity:1;paint-order:stroke fill markers"
           id="ellipse49"
           cx="2351.1355"
           cy="1946.3718"
           rx="22.545025"
           ry="23.201954"
           inkscape:label="Screw.7" />
        <ellipse
           style="fill:#dae0e3;fill-opacity:1;stroke:#c2c9ca;stroke-width:0;stroke-linejoin:round;stroke-dasharray:none;stroke-opacity:1;paint-order:stroke fill markers"
           id="ellipse50"
           cx="2424.9167"
           cy="2124.9656"
           rx="22.545025"
           ry="23.201954"
           inkscape:label="Screw.6" />
        <ellipse
           style="fill:#dae0e3;fill-opacity:1;stroke:#c2c9ca;stroke-width:0;stroke-linejoin:round;stroke-dasharray:none;stroke-opacity:1;paint-order:stroke fill markers"
           id="ellipse51"
           cx="2605.6667"
           cy="2199.9656"
           rx="22.545025"
           ry="23.201954"
           inkscape:label="Screw.5" />
        <ellipse
           style="fill:#dae0e3;fill-opacity:1;stroke:#c2c9ca;stroke-width:0;stroke-linejoin:round;stroke-dasharray:none;stroke-opacity:1;paint-order:stroke fill markers"
           id="ellipse52"
           cx="2783.9902"
           cy="2126.78"
           rx="22.545025"
           ry="23.201954"
           inkscape:label="Screw.4" />
        <ellipse
           style="fill:#dae0e3;fill-opacity:1;stroke:#c2c9ca;stroke-width:0;stroke-linejoin:round;stroke-dasharray:none;stroke-opacity:1;paint-order:stroke fill markers"
           id="ellipse53"
           cx="2859.7402"
           cy="1946.0302"
           rx="22.545025"
           ry="23.201954"
           inkscape:label="Screw.3" />
        <ellipse
           style="fill:#dae0e3;fill-opacity:1;stroke:#c2c9ca;stroke-width:0;stroke-linejoin:round;stroke-dasharray:none;stroke-opacity:1;paint-order:stroke fill markers"
           id="ellipse54"
           cx="2785.4902"
           cy="1767.9052"
           rx="22.545025"
           ry="23.201954"
           inkscape:label="Screw.2" />
        <ellipse
           style="fill:#dae0e3;fill-opacity:1;stroke:#c2c9ca;stroke-width:0;stroke-linejoin:round;stroke-dasharray:none;stroke-opacity:1;paint-order:stroke fill markers"
           id="ellipse55"
           cx="2605.1152"
           cy="1693.4677"
           rx="22.545025"
           ry="23.201954"
           inkscape:label="Screw.1" />
      </g>
    </g>
  </g>
  <g
     transform="matrix(0.1,0,0,-0.1,0,2422.5)"
     fill="#000000"
     stroke="none"
     id="g29"
     inkscape:label="Cart"
     style="display:inline">
    <path
       d="m 732,24218 c -9,-9 -12,-94 -12,-320 v -308 h -42 c -150,-1 -341,-113 -465,-275 -71,-92 -146,-246 -179,-370 -26,-94 -28,-113 -28,-305 0,-192 2,-211 28,-305 33,-124 108,-278 179,-370 124,-162 315,-274 465,-275 h 42 v -309 c 0,-309 0,-310 22,-325 12,-9 30,-16 40,-16 17,0 18,-268 16,-6302 l -3,-6303 -25,-3 c -51,-7 -50,-4 -50,-333 V 7790 H 678 C 528,7789 337,7677 213,7515 142,7423 67,7269 34,7145 8,7051 6,7032 6,6840 6,6648 8,6629 34,6535 67,6411 142,6257 213,6165 337,6003 528,5891 678,5890 h 42 v -309 c 0,-309 0,-310 22,-325 20,-14 87,-16 536,-16 h 513 l -8,-132 c -12,-193 -9,-633 6,-778 79,-806 343,-1553 784,-2215 C 3311,1008 4491,257 5810,56 6091,13 6208,5 6540,6 c 438,0 721,34 1129,135 1644,406 2947,1650 3425,3271 43,144 105,404 121,505 l 7,43 h 5068 5068 l 7,-42 c 16,-102 78,-362 121,-506 405,-1376 1411,-2494 2742,-3048 414,-172 865,-287 1347,-341 188,-21 718,-24 905,-5 1142,118 2147,589 2935,1377 787,787 1266,1808 1376,2935 15,145 18,585 6,777 l -8,132 520,3 c 484,3 522,4 538,21 16,16 18,46 21,322 l 3,305 h 37 c 144,1 337,116 459,275 71,92 146,246 179,370 26,94 28,113 28,305 0,192 -2,211 -28,305 -33,124 -108,278 -179,370 -122,159 -315,274 -459,275 h -38 v 293 c 0,318 -4,339 -53,345 l -27,3 v 6304 6303 l 30,11 c 18,6 34,21 40,36 6,15 10,148 10,316 v 289 h 38 c 144,1 337,116 459,275 71,92 146,246 179,370 26,94 28,113 28,305 0,192 -2,211 -28,305 -33,124 -108,278 -179,370 -122,159 -315,274 -459,275 h -37 l -3,303 c -2,240 -6,307 -17,320 -12,16 -1117,17 -15560,17 -12079,0 -15550,-3 -15559,-12 z M 31750,22640 V 21160 H 16290 830 v 1480 1480 h 15460 15460 z m -31040,0 v -870 h -28 c -96,0 -230,62 -324,149 -184,170 -278,414 -278,721 0,307 94,551 278,721 95,88 221,146 320,148 l 32,1 z m 31274,855 c 91,-24 163,-64 238,-134 184,-170 278,-414 278,-721 0,-307 -94,-551 -278,-721 -94,-87 -228,-149 -324,-149 h -28 v 870 870 h 28 c 15,0 54,-7 86,-15 z M 2560,14740 V 8440 H 1735 910 v 6300 6300 h 825 825 z m 6150,277 V 8994 l -110,53 c -466,223 -972,373 -1480,437 -322,41 -791,46 -1095,11 -898,-103 -1724,-436 -2416,-975 l -103,-80 h -433 -433 v 6300 6300 h 3035 3035 z m 1610,-277 V 8440 h -383 -383 l -109,85 c -137,107 -383,272 -537,360 l -118,68 v 6043 6044 h 765 765 z m 11860,0 V 8440 h -5890 -5890 v 6300 6300 h 5890 5890 z m 1610,256 V 8953 l -117,-68 c -155,-88 -401,-253 -538,-360 l -109,-85 h -383 -383 v 6300 6300 h 765 765 z m 6150,-256 V 8440 h -433 -433 l -103,80 c -692,539 -1518,872 -2416,975 -304,35 -773,30 -1095,-11 -508,-64 -1014,-214 -1480,-437 l -110,-53 v 6023 6023 h 3035 3035 z m 1730,0 V 8440 h -825 -825 v 6300 6300 h 825 825 z M 6825,9400 C 8837,9266 10522,7874 11030,5925 11335,4755 11164,3488 10561,2443 9941,1367 8916,582 7718,266 6537,-46 5265,122 4213,729 2302,1831 1428,4113 2113,6210 c 355,1085 1106,2008 2100,2581 780,450 1716,668 2612,609 z m 19520,0 c 2014,-134 3697,-1525 4205,-3475 305,-1170 134,-2437 -469,-3482 C 29030,620 26894,-271 24862,266 c -1104,291 -2071,987 -2697,1940 -720,1094 -945,2454 -615,3719 400,1536 1539,2751 3047,3250 554,184 1170,263 1748,225 z M 3167,8128 C 2709,7668 2382,7179 2130,6581 1991,6250 1848,5728 1814,5423 l -7,-63 H 1319 830 v 1480 1480 h 1264 1264 z m 19530,10 c -461,-461 -798,-962 -1047,-1556 -140,-335 -282,-855 -316,-1159 l -7,-63 h -5037 -5037 l -7,63 c -34,304 -176,824 -316,1159 -249,594 -586,1095 -1047,1556 l -183,182 h 6590 6590 z M 31750,6840 V 5360 h -489 -488 l -7,63 c -34,305 -177,827 -316,1158 -252,598 -579,1087 -1037,1547 l -191,192 h 1264 1264 z m -31040,0 v -870 h -28 c -96,0 -230,62 -324,149 -184,170 -278,414 -278,721 0,307 94,551 278,721 95,88 221,146 320,148 l 32,1 z m 31274,855 c 91,-24 163,-64 238,-134 184,-170 278,-414 278,-721 0,-307 -94,-551 -278,-721 -94,-87 -228,-149 -324,-149 h -28 v 870 870 h 28 c 15,0 54,-7 86,-15 z M 21303,5108 c -19,-310 -2,-832 33,-1007 l 7,-31 h -5053 -5052 l 6,31 c 35,175 52,697 33,1007 l -8,132 h 5021 5021 z"
       id="path1"
       inkscape:label="Cart" />
    <g
       id="g32"
       inkscape:label="Wheel.B"
       transform="rotate(-33.75,6525.5,4755)">
      <path
         d="M 6390,8954 C 5309,8910 4318,8479 3564,7726 2874,7035 2450,6135 2354,5155 c -19,-191 -21,-577 -5,-755 82,-884 433,-1719 1000,-2375 276,-320 600,-598 953,-820 169,-106 494,-272 663,-338 649,-254 1296,-347 1973,-281 1627,156 3025,1259 3557,2805 456,1326 224,2785 -622,3901 -402,532 -930,962 -1535,1252 -438,211 -912,342 -1398,390 -162,15 -422,25 -550,20 z m 480,-125 c 507,-46 977,-173 1418,-385 202,-96 303,-154 507,-290 983,-652 1625,-1684 1786,-2874 26,-199 37,-636 20,-843 -45,-534 -176,-1006 -416,-1492 -118,-238 -237,-433 -382,-627 C 9133,1426 8164,861 7050,709 6831,680 6388,672 6160,694 5530,754 4943,947 4408,1271 3403,1879 2702,2913 2505,4075 c -74,438 -74,932 0,1370 77,457 244,925 473,1330 79,141 267,416 378,555 205,257 529,560 819,767 546,390 1255,656 1920,722 61,6 124,13 140,15 73,8 531,5 635,-5 z"
         id="path6"
         inkscape:label="Wheel circle_2.F" />
      <path
         d="m 6400,7904 c -371,-19 -725,-97 -1054,-230 -260,-106 -570,-288 -786,-460 -117,-94 -390,-368 -486,-489 -232,-292 -426,-654 -537,-1000 -105,-328 -149,-612 -149,-965 0,-521 107,-968 344,-1433 367,-720 1004,-1275 1765,-1537 348,-120 659,-172 1033,-172 508,0 959,106 1407,331 451,226 861,574 1147,975 418,586 628,1303 586,2003 -28,456 -124,820 -325,1228 -471,955 -1403,1612 -2455,1729 -143,15 -382,25 -490,20 z m 465,-129 c 862,-100 1637,-555 2134,-1253 283,-397 460,-843 537,-1347 25,-161 30,-569 9,-745 -86,-747 -421,-1407 -968,-1908 -215,-197 -432,-344 -712,-482 -339,-167 -672,-263 -1044,-300 -153,-15 -476,-12 -631,6 -1315,150 -2376,1125 -2634,2420 -40,200 -56,368 -56,594 0,481 97,904 305,1329 458,936 1339,1560 2375,1685 159,19 523,20 685,1 z"
         id="path7"
         inkscape:label="Inner circle_2.B" />
      <path
         d="m 6335,6800 c -949,-97 -1704,-825 -1836,-1770 -17,-122 -17,-418 0,-540 63,-451 264,-854 585,-1176 322,-321 723,-521 1176,-585 121,-17 416,-17 540,0 463,64 898,288 1217,625 600,634 732,1582 327,2354 -303,578 -865,979 -1512,1077 -123,19 -380,27 -497,15 z m 482,-126 c 603,-90 1134,-465 1422,-1005 100,-187 173,-409 207,-629 22,-141 22,-419 0,-561 -86,-555 -384,-1022 -852,-1337 -338,-227 -802,-347 -1209,-312 -698,60 -1287,457 -1591,1075 -432,878 -143,1936 676,2475 278,182 561,277 945,314 69,7 302,-5 402,-20 z"
         id="path11"
         inkscape:label="Inner circle_1.B" />
      <g
         id="g31"
         inkscape:label="Screws wheel.B">
        <path
           d="m 6458,7566 c -122,-33 -202,-142 -201,-271 2,-244 291,-360 468,-188 53,52 78,113 78,193 0,81 -28,143 -88,199 -73,67 -167,92 -257,67 z m 160,-95 c 74,-38 106,-97 100,-186 -7,-114 -86,-181 -204,-173 -52,3 -70,9 -100,34 -51,41 -74,88 -74,152 0,114 76,192 188,192 32,0 67,-7 90,-19 z"
           id="path8" />
        <path
           d="m 8248,6826 c -122,-33 -202,-142 -201,-271 2,-244 291,-360 468,-188 53,52 78,113 78,193 0,81 -28,143 -88,199 -73,67 -167,92 -257,67 z m 160,-95 c 74,-38 106,-97 100,-186 -7,-114 -86,-181 -204,-173 -52,3 -70,9 -100,34 -51,41 -74,88 -74,152 0,114 76,192 188,192 32,0 67,-7 90,-19 z"
           id="path9" />
        <path
           d="m 4658,6816 c -122,-33 -202,-142 -201,-271 2,-244 291,-360 468,-188 53,52 78,113 78,193 0,81 -28,143 -88,199 -73,67 -167,92 -257,67 z m 160,-95 c 74,-38 106,-97 100,-186 -7,-114 -86,-181 -204,-173 -52,3 -70,9 -100,34 -51,41 -74,88 -74,152 0,114 76,192 188,192 32,0 67,-7 90,-19 z"
           id="path10" />
        <path
           d="m 3918,5026 c -122,-33 -202,-142 -201,-271 2,-244 291,-360 468,-188 53,52 78,113 78,193 0,81 -28,143 -88,199 -73,67 -167,92 -257,67 z m 160,-95 c 74,-38 106,-97 100,-186 -7,-114 -86,-181 -204,-173 -52,3 -70,9 -100,34 -51,41 -74,88 -74,152 0,114 76,192 188,192 32,0 67,-7 90,-19 z"
           id="path12" />
        <path
           d="m 8998,5026 c -122,-33 -202,-142 -201,-271 2,-244 291,-360 468,-188 53,52 78,113 78,193 0,81 -28,143 -88,199 -73,67 -167,92 -257,67 z m 160,-95 c 74,-38 106,-97 100,-186 -7,-114 -86,-181 -204,-173 -52,3 -70,9 -100,34 -51,41 -74,88 -74,152 0,114 76,192 188,192 32,0 67,-7 90,-19 z"
           id="path13" />
        <path
           d="m 8258,3236 c -122,-33 -202,-142 -201,-271 2,-244 291,-360 468,-188 53,52 78,113 78,193 0,81 -28,143 -88,199 -73,67 -167,92 -257,67 z m 160,-95 c 74,-38 106,-97 100,-186 -7,-114 -86,-181 -204,-173 -52,3 -70,9 -100,34 -51,41 -74,88 -74,152 0,114 76,192 188,192 32,0 67,-7 90,-19 z"
           id="path14" />
        <path
           d="m 4668,3226 c -122,-33 -202,-142 -201,-271 2,-244 291,-360 468,-188 53,52 78,113 78,193 0,81 -28,143 -88,199 -73,67 -167,92 -257,67 z m 160,-95 c 74,-38 106,-97 100,-186 -7,-114 -86,-181 -204,-173 -52,3 -70,9 -100,34 -51,41 -74,88 -74,152 0,114 76,192 188,192 32,0 67,-7 90,-19 z"
           id="path15" />
        <path
           d="m 6458,2486 c -122,-33 -202,-142 -201,-271 2,-244 291,-360 468,-188 53,52 78,113 78,193 0,81 -28,143 -88,199 -73,67 -167,92 -257,67 z m 160,-95 c 74,-38 106,-97 100,-186 -7,-114 -86,-181 -204,-173 -52,3 -70,9 -100,34 -51,41 -74,88 -74,152 0,114 76,192 188,192 32,0 67,-7 90,-19 z"
           id="path16" />
      </g>
    </g>
    <g
       id="g33"
       inkscape:label="Wheel.F"
       onload="document.getElementById(&quot;myDIV&quot;).style.transform = &quot;rotate(7deg)&quot;;"
       transform="rotate(-78.75,26049.147,4757.9386)">
      <path
         d="m 25835,8950 c -1037,-55 -2016,-491 -2750,-1225 -374,-374 -686,-832 -889,-1307 -543,-1272 -432,-2715 299,-3886 264,-421 620,-810 1021,-1114 620,-469 1358,-758 2126,-832 677,-66 1324,27 1973,281 169,66 494,232 663,338 1029,645 1732,1713 1917,2911 37,240 47,385 47,644 0,259 -17,472 -57,705 -198,1171 -902,2222 -1907,2849 -729,456 -1594,680 -2443,636 z m 735,-139 c 778,-107 1443,-392 2060,-885 164,-132 459,-427 594,-596 111,-139 299,-414 378,-555 281,-497 458,-1060 513,-1633 19,-199 19,-565 0,-764 -93,-973 -526,-1875 -1224,-2550 -304,-295 -626,-523 -1009,-717 -451,-227 -942,-368 -1462,-417 -228,-22 -671,-14 -890,15 -1114,152 -2083,717 -2753,1609 -271,361 -504,822 -636,1262 -80,265 -138,570 -162,857 -17,207 -6,644 20,843 145,1068 671,2002 1507,2674 121,97 399,285 541,365 424,240 931,412 1413,481 245,35 314,39 640,35 251,-2 346,-7 470,-24 z"
         id="path17"
         inkscape:label="Wheel circle_2.F" />
      <path
         d="m 25920,7904 c -1024,-53 -1930,-565 -2492,-1409 -107,-161 -262,-462 -322,-625 -368,-1004 -225,-2085 390,-2946 192,-269 480,-553 759,-746 357,-249 763,-420 1200,-507 364,-72 824,-72 1190,0 842,166 1566,652 2035,1366 222,337 377,719 459,1128 72,364 72,826 0,1190 -100,504 -316,971 -633,1370 -96,121 -369,395 -486,489 -337,269 -781,490 -1195,595 -275,69 -645,108 -905,95 z m 465,-129 c 1417,-164 2517,-1263 2680,-2680 9,-74 15,-217 15,-335 0,-226 -16,-394 -56,-594 -258,-1295 -1319,-2270 -2634,-2420 -155,-18 -478,-21 -631,-6 -244,24 -507,83 -734,165 -158,56 -452,200 -593,289 -704,445 -1195,1159 -1357,1971 -45,229 -58,386 -52,660 7,321 40,539 123,814 350,1153 1352,1990 2554,2135 159,19 523,20 685,1 z"
         id="path18"
         inkscape:label="Inner circle_2.F" />
      <path
         d="m 25910,6803 c -300,-28 -515,-86 -755,-203 -393,-191 -716,-505 -919,-892 -405,-772 -273,-1720 327,-2354 319,-337 754,-561 1217,-625 124,-17 419,-17 540,0 453,64 854,264 1176,585 275,275 451,588 544,966 41,170 54,285 54,480 0,96 -6,218 -13,270 -97,694 -536,1291 -1167,1586 -300,141 -704,216 -1004,187 z m 427,-129 c 273,-41 544,-144 773,-294 819,-539 1108,-1597 676,-2475 -445,-904 -1511,-1316 -2446,-945 -244,96 -440,223 -634,410 -313,302 -504,672 -572,1109 -22,142 -22,420 0,561 109,695 560,1264 1206,1521 173,68 358,110 595,133 69,7 302,-5 402,-20 z"
         id="path22"
         inkscape:label="Inner circle_1.F" />
      <g
         id="g30"
         inkscape:label="Screws wheel.F">
        <path
           d="m 26000,7571 c -87,-20 -163,-80 -200,-159 -30,-62 -31,-159 -3,-223 77,-175 313,-219 448,-84 106,107 106,279 -3,391 -60,62 -161,93 -242,75 z m 164,-114 c 49,-38 76,-94 76,-159 0,-64 -23,-111 -74,-152 -30,-25 -48,-31 -100,-34 -118,-8 -197,59 -204,173 -8,129 70,208 199,202 54,-2 73,-7 103,-30 z"
           id="path19" />
        <path
           d="m 24210,6831 c -87,-20 -163,-80 -200,-159 -30,-62 -31,-159 -3,-223 77,-175 313,-219 448,-84 106,107 106,279 -3,391 -60,62 -161,93 -242,75 z m 164,-114 c 49,-38 76,-94 76,-159 0,-64 -23,-111 -74,-152 -30,-25 -48,-31 -100,-34 -118,-8 -197,59 -204,173 -8,129 70,208 199,202 54,-2 73,-7 103,-30 z"
           id="path20" />
        <path
           d="m 27800,6821 c -87,-20 -163,-80 -200,-159 -30,-62 -31,-159 -3,-223 77,-175 313,-219 448,-84 106,107 106,279 -3,391 -60,62 -161,93 -242,75 z m 164,-114 c 49,-38 76,-94 76,-159 0,-64 -23,-111 -74,-152 -30,-25 -48,-31 -100,-34 -118,-8 -197,59 -204,173 -8,129 70,208 199,202 54,-2 73,-7 103,-30 z"
           id="path21" />
        <path
           d="m 23460,5031 c -87,-20 -163,-80 -200,-159 -30,-62 -31,-159 -3,-223 77,-175 313,-219 448,-84 106,107 106,279 -3,391 -60,62 -161,93 -242,75 z m 164,-114 c 49,-38 76,-94 76,-159 0,-64 -23,-111 -74,-152 -30,-25 -48,-31 -100,-34 -118,-8 -197,59 -204,173 -8,129 70,208 199,202 54,-2 73,-7 103,-30 z"
           id="path23" />
        <path
           d="m 28540,5031 c -87,-20 -163,-80 -200,-159 -30,-62 -31,-159 -3,-223 77,-175 313,-219 448,-84 106,107 106,279 -3,391 -60,62 -161,93 -242,75 z m 164,-114 c 49,-38 76,-94 76,-159 0,-64 -23,-111 -74,-152 -30,-25 -48,-31 -100,-34 -118,-8 -197,59 -204,173 -8,129 70,208 199,202 54,-2 73,-7 103,-30 z"
           id="path24" />
        <path
           d="m 24200,3241 c -87,-20 -163,-80 -200,-159 -30,-62 -31,-159 -3,-223 77,-175 313,-219 448,-84 106,107 106,279 -3,391 -60,62 -161,93 -242,75 z m 164,-114 c 49,-38 76,-94 76,-159 0,-64 -23,-111 -74,-152 -30,-25 -48,-31 -100,-34 -118,-8 -197,59 -204,173 -8,129 70,208 199,202 54,-2 73,-7 103,-30 z"
           id="path25" />
        <path
           d="m 27790,3231 c -87,-20 -163,-80 -200,-159 -30,-62 -31,-159 -3,-223 77,-175 313,-219 448,-84 106,107 106,279 -3,391 -60,62 -161,93 -242,75 z m 164,-114 c 49,-38 76,-94 76,-159 0,-64 -23,-111 -74,-152 -30,-25 -48,-31 -100,-34 -118,-8 -197,59 -204,173 -8,129 70,208 199,202 54,-2 73,-7 103,-30 z"
           id="path26" />
        <path
           d="m 26000,2491 c -87,-20 -163,-80 -200,-159 -30,-62 -31,-159 -3,-223 77,-175 313,-219 448,-84 106,107 106,279 -3,391 -60,62 -161,93 -242,75 z m 164,-114 c 49,-38 76,-94 76,-159 0,-64 -23,-111 -74,-152 -30,-25 -48,-31 -100,-34 -118,-8 -197,59 -204,173 -8,129 70,208 199,202 54,-2 73,-7 103,-30 z"
           id="path27" />
      </g>
    </g>
    <g
       id="g34"
       inkscape:label="Bottom screws">
      <path
         d="m 12800,7775 c -200,-42 -361,-135 -506,-288 -113,-119 -183,-246 -230,-413 -24,-87 -30,-320 -11,-415 62,-300 242,-536 512,-671 130,-66 225,-90 373,-96 196,-7 325,19 482,98 177,89 332,244 420,420 79,156 105,287 97,477 -10,253 -104,462 -288,639 -120,114 -237,182 -396,230 -74,23 -111,27 -238,30 -102,2 -171,-1 -215,-11 z m 315,-75 c 409,-58 718,-400 742,-820 28,-513 -405,-940 -921,-907 -373,24 -688,281 -788,643 -29,106 -31,326 -4,427 50,190 143,338 289,464 183,157 433,228 682,193 z"
         id="path28" />
      <path
         d="m 19401,7775 c -190,-42 -331,-117 -470,-249 -125,-121 -207,-255 -257,-423 -32,-108 -43,-302 -24,-419 32,-201 129,-383 281,-530 112,-106 217,-171 361,-220 163,-55 412,-59 568,-9 354,114 593,377 667,734 19,95 13,328 -11,415 -47,167 -117,294 -230,413 -149,158 -327,257 -530,292 -82,15 -278,12 -355,-4 z m 413,-94 c 233,-61 442,-231 550,-446 281,-563 -95,-1222 -720,-1262 -516,-33 -949,394 -921,907 24,415 329,756 732,819 93,15 268,6 359,-18 z"
         id="path29" />
    </g>
    <g
       id="g35"
       inkscape:label="Top screws">
      <path
         d="m 6200,23575 c -200,-42 -361,-135 -506,-288 -113,-119 -183,-246 -230,-413 -24,-87 -30,-320 -11,-415 62,-300 242,-536 512,-671 130,-66 225,-90 373,-96 196,-7 325,19 482,98 177,89 332,244 420,420 79,156 105,287 97,477 -10,253 -104,462 -288,639 -120,114 -237,182 -396,230 -74,23 -111,27 -238,30 -102,2 -171,-1 -215,-11 z m 315,-75 c 409,-58 718,-400 742,-820 28,-513 -405,-940 -921,-907 -373,24 -688,281 -788,643 -29,106 -31,326 -4,427 50,190 143,338 289,464 183,157 433,228 682,193 z"
         id="path2" />
      <path
         d="m 12800,23575 c -200,-42 -361,-135 -506,-288 -113,-119 -183,-246 -230,-413 -24,-87 -30,-320 -11,-415 62,-300 242,-536 512,-671 130,-66 225,-90 373,-96 196,-7 325,19 482,98 177,89 332,244 420,420 79,156 105,287 97,477 -10,253 -104,462 -288,639 -120,114 -237,182 -396,230 -74,23 -111,27 -238,30 -102,2 -171,-1 -215,-11 z m 315,-75 c 409,-58 718,-400 742,-820 28,-513 -405,-940 -921,-907 -373,24 -688,281 -788,643 -29,106 -31,326 -4,427 50,190 143,338 289,464 183,157 433,228 682,193 z"
         id="path3" />
      <path
         d="m 19401,23575 c -190,-42 -331,-117 -470,-249 -125,-121 -207,-255 -257,-423 -32,-108 -43,-302 -24,-419 32,-201 129,-383 281,-530 112,-106 217,-171 361,-220 163,-55 412,-59 568,-9 354,114 593,377 667,734 19,95 13,328 -11,415 -47,167 -117,294 -230,413 -149,158 -327,257 -530,292 -82,15 -278,12 -355,-4 z m 413,-94 c 233,-61 442,-231 550,-446 281,-563 -95,-1222 -720,-1262 -516,-33 -949,394 -921,907 24,415 329,756 732,819 93,15 268,6 359,-18 z"
         id="path4" />
      <path
         d="m 26001,23575 c -190,-42 -331,-117 -470,-249 -125,-121 -207,-255 -257,-423 -32,-108 -43,-302 -24,-419 32,-201 129,-383 281,-530 112,-106 217,-171 361,-220 163,-55 412,-59 568,-9 354,114 593,377 667,734 19,95 13,328 -11,415 -47,167 -117,294 -230,413 -149,158 -327,257 -530,292 -82,15 -278,12 -355,-4 z m 413,-94 c 233,-61 442,-231 550,-446 281,-563 -95,-1222 -720,-1262 -516,-33 -949,394 -921,907 24,415 329,756 732,819 93,15 268,6 359,-18 z"
         id="path5" />
    </g>
  </g>
</svg>
