<?xml version="1.0" encoding="UTF-8" standalone="no"?>
<svg
   version="1.0"
   width="2222.000000pt"
   height="2222.000000pt"
   viewBox="0 0 2222.000000 2222.000000"
   preserveAspectRatio="xMidYMid meet"
   id="svg1"
   sodipodi:docname="flower_pattern.svg"
   inkscape:version="1.4.2 (f4327f4, 2025-05-13)"
   xmlns:inkscape="http://www.inkscape.org/namespaces/inkscape"
   xmlns:sodipodi="http://sodipodi.sourceforge.net/DTD/sodipodi-0.dtd"
   xmlns="http://www.w3.org/2000/svg"
   xmlns:svg="http://www.w3.org/2000/svg">
  <defs
     id="defs1" />
  <sodipodi:namedview
     id="namedview1"
     pagecolor="#ffffff"
     bordercolor="#000000"
     borderopacity="0.25"
     inkscape:showpageshadow="2"
     inkscape:pageopacity="0.0"
     inkscape:pagecheckerboard="0"
     inkscape:deskcolor="#d1d1d1"
     inkscape:document-units="pt"
     inkscape:zoom="0.26091359"
     inkscape:cx="1479.417"
     inkscape:cy="1481.3333"
     inkscape:window-width="1920"
     inkscape:window-height="991"
     inkscape:window-x="-9"
     inkscape:window-y="-9"
     inkscape:window-maximized="1"
     inkscape:current-layer="svg1" />
  <g
     transform="translate(0.000000,2222.000000) scale(0.100000,-0.100000)"
     fill="#000000"
     stroke="none"
     id="g1"
     style="fill:#2dc1b5;fill-opacity:1">
    <path
       d="M10888 19219 c-297 -20 -689 -112 -916 -215 -29 -13 -55 -24 -58 -24 -8 0 -223 -108 -295 -148 -76 -43 -256 -162 -313 -206 -295 -235 -531 -490 -708 -767 -73 -113 -148 -245 -148 -260 0 -7 -7 -8 -17 -4 -102 39 -295 91 -453 121 -305 57 -765 57 -1070 0 -183 -35 -458 -113 -565 -161 -16 -8 -59 -26 -95 -40 -72 -30 -317 -156 -358 -184 -15 -10 -70 -47 -122 -82 -92 -61 -180 -125 -190 -138 -3 -3 -23 -20 -45 -36 -58 -43 -257 -237 -334 -326 -130 -149 -152 -180 -303 -409 -45 -68 -157 -283 -193 -370 -14 -36 -32 -78 -40 -95 -48 -107 -126 -382 -161 -565 -41 -219 -56 -579 -33 -819 22 -238 86 -529 154 -703 4 -11 3 -18 -4 -18 -15 0 -147 -75 -260 -148 -277 -177 -532 -413 -767 -708 -44 -57 -163 -237 -206 -313 -40 -72 -148 -287 -148 -295 0 -3 -11 -29 -24 -58 -68 -149 -161 -483 -190 -681 -42 -283 -42 -631 0 -914 29 -200 122 -533 190 -680 13 -30 24 -56 24 -59 0 -9 107 -222 145 -291 44 -78 171 -266 250 -369 134 -176 397 -426 600 -570 116 -83 365 -235 392 -239 1 0 -12 -41 -28 -90 -139 -410 -178 -960 -99 -1414 39 -226 107 -460 191 -658 42 -99 165 -343 198 -391 9 -15 41 -63 71 -107 75 -112 123 -176 211 -280 84 -98 300 -313 364 -360 22 -16 42 -33 45 -36 10 -13 98 -77 190 -138 52 -35 107 -72 122 -82 41 -28 286 -154 358 -184 36 -14 79 -32 95 -40 106 -47 360 -120 562 -160 207 -41 580 -57 822 -34 238 22 529 86 704 154 11 5 17 2 17 -5 0 -24 197 -346 256 -419 7 -9 41 -52 75 -96 116 -148 328 -354 525 -511 57 -44 237 -163 313 -206 72 -40 287 -148 295 -148 3 0 29 -11 58 -24 86 -39 282 -102 438 -141 346 -86 782 -104 1158 -49 199 29 532 122 679 190 30 13 56 24 59 24 8 0 222 107 291 145 76 43 263 169 369 250 102 77 393 367 473 470 35 44 68 87 75 96 57 70 256 396 256 418 0 8 6 11 18 6 61 -24 182 -60 272 -81 559 -133 1133 -110 1660 66 69 23 139 48 155 55 17 8 59 26 95 40 70 29 315 154 358 184 15 9 63 41 107 71 113 75 177 123 280 211 100 86 315 302 360 364 17 22 33 42 36 45 13 10 75 96 139 190 35 52 72 107 81 122 29 43 155 288 184 358 14 36 32 79 40 95 48 107 126 382 161 565 41 220 55 564 33 813 -21 237 -86 535 -154 710 -5 11 -2 17 5 17 24 0 346 197 419 256 9 7 52 40 96 75 101 78 392 370 468 469 77 101 204 289 249 369 40 72 148 287 148 295 0 3 11 29 24 59 76 166 166 500 197 737 30 219 30 581 0 800 -31 235 -121 569 -197 738 -13 29 -24 55 -24 58 0 8 -107 222 -142 284 -41 73 -174 275 -212 324 -159 199 -363 409 -511 525 -44 34 -87 68 -96 75 -73 59 -395 256 -419 256 -7 0 -10 6 -5 18 157 402 208 1008 125 1492 -33 193 -112 476 -165 595 -8 17 -26 59 -40 95 -30 72 -156 317 -184 358 -10 15 -47 70 -82 122 -61 92 -125 180 -138 190 -3 3 -20 23 -36 45 -47 64 -262 280 -360 364 -104 88 -168 136 -280 211 -44 30 -92 62 -107 71 -14 10 -86 49 -160 87 -450 234 -890 342 -1393 342 -321 0 -647 -50 -910 -139 -49 -16 -90 -29 -90 -28 -1 8 -68 128 -113 202 -255 422 -646 802 -1077 1046 -80 46 -268 139 -279 139 -3 0 -29 11 -59 24 -84 39 -280 102 -432 140 -293 72 -600 97 -927 75z m622 -3208 c224 -24 363 -43 485 -67 72 -14 155 -30 185 -36 64 -11 317 -79 405 -109 33 -12 89 -30 125 -41 36 -11 106 -38 157 -59 50 -22 96 -39 103 -39 6 0 39 -13 73 -29 34 -16 105 -49 157 -73 52 -24 106 -50 120 -56 14 -7 59 -31 102 -54 42 -24 113 -63 157 -87 45 -25 81 -48 81 -52 0 -3 15 -12 33 -20 17 -7 34 -15 37 -18 10 -12 101 -71 108 -71 4 0 29 -18 56 -40 26 -22 54 -40 61 -40 7 0 15 -4 17 -8 3 -8 134 -109 194 -150 19 -12 34 -26 34 -30 0 -4 17 -18 37 -32 21 -14 48 -37 61 -52 13 -16 27 -28 31 -28 11 0 195 -174 306 -290 55 -58 119 -125 142 -149 24 -24 43 -46 43 -49 0 -4 40 -51 104 -122 12 -14 31 -38 42 -55 10 -16 30 -41 43 -55 13 -14 39 -49 58 -77 19 -29 39 -53 43 -53 4 0 10 -10 14 -22 3 -13 21 -41 41 -62 19 -22 35 -43 35 -47 0 -11 62 -103 72 -107 4 -2 8 -11 8 -21 0 -9 9 -27 20 -39 11 -11 36 -52 57 -89 20 -37 45 -79 55 -92 10 -13 18 -30 18 -38 0 -7 18 -42 40 -77 22 -35 40 -68 40 -74 0 -6 17 -46 39 -89 99 -198 229 -534 267 -688 8 -33 28 -103 45 -155 16 -52 35 -129 43 -170 7 -41 25 -131 39 -200 14 -69 30 -170 37 -225 6 -55 19 -161 27 -235 22 -187 22 -675 0 -860 -8 -74 -21 -180 -27 -235 -7 -55 -23 -156 -37 -225 -14 -69 -30 -152 -35 -185 -6 -33 -28 -118 -49 -189 -22 -70 -39 -136 -39 -146 0 -10 -18 -65 -40 -121 -22 -57 -40 -110 -40 -120 0 -9 -18 -57 -40 -107 -22 -49 -40 -94 -40 -100 0 -26 -188 -420 -216 -453 -8 -8 -14 -22 -14 -31 0 -8 -8 -26 -18 -39 -10 -13 -36 -57 -57 -97 -22 -39 -42 -72 -46 -72 -4 0 -12 -15 -20 -32 -7 -18 -15 -35 -18 -38 -12 -10 -71 -101 -71 -108 0 -4 -18 -29 -40 -56 -22 -26 -40 -54 -40 -61 0 -7 -4 -15 -8 -17 -7 -3 -106 -130 -142 -183 -8 -12 -27 -35 -41 -51 -84 -92 -109 -122 -109 -126 0 -7 -137 -156 -205 -223 -117 -116 -278 -265 -285 -265 -5 0 -19 -12 -32 -27 -13 -16 -40 -39 -61 -53 -20 -14 -37 -28 -37 -32 0 -4 -15 -18 -34 -30 -60 -41 -191 -142 -194 -150 -2 -4 -10 -8 -17 -8 -7 0 -35 -18 -61 -40 -27 -22 -52 -40 -56 -40 -7 0 -98 -59 -108 -71 -3 -3 -20 -11 -37 -18 -18 -8 -33 -16 -33 -20 0 -4 -33 -24 -72 -46 -40 -21 -84 -47 -97 -57 -13 -10 -31 -18 -39 -18 -9 0 -23 -6 -31 -14 -33 -28 -427 -216 -453 -216 -6 0 -51 -18 -100 -40 -50 -22 -98 -40 -107 -40 -10 0 -63 -18 -120 -40 -56 -22 -110 -40 -118 -40 -9 0 -77 -18 -152 -39 -75 -22 -161 -44 -191 -50 -30 -5 -113 -21 -185 -35 -305 -59 -706 -92 -1000 -82 -257 8 -573 42 -775 83 -69 14 -152 30 -185 36 -33 5 -109 24 -170 43 -60 18 -137 40 -170 48 -150 37 -473 162 -690 267 -44 22 -84 39 -89 39 -5 0 -37 18 -72 40 -35 22 -70 40 -77 40 -8 0 -25 8 -38 19 -13 10 -55 35 -92 55 -38 20 -78 45 -90 56 -11 11 -29 20 -38 20 -10 0 -19 4 -21 8 -4 10 -96 72 -107 72 -4 0 -25 16 -47 35 -21 20 -49 38 -61 41 -13 4 -23 9 -23 14 0 4 -34 31 -75 60 -41 29 -75 56 -75 60 0 4 -10 11 -23 17 -21 10 -35 21 -138 112 -25 23 -49 41 -51 41 -3 0 -25 19 -49 43 -24 23 -87 83 -139 132 -106 100 -300 304 -300 316 0 4 -12 18 -28 31 -15 12 -38 40 -51 61 -12 20 -26 37 -31 37 -5 0 -21 18 -37 39 -15 22 -53 73 -83 115 -30 42 -58 76 -62 76 -4 0 -8 6 -8 13 0 6 -18 35 -40 62 -22 28 -40 53 -40 57 0 7 -60 98 -71 108 -3 3 -11 20 -18 38 -8 17 -16 32 -20 32 -4 0 -24 33 -46 73 -21 39 -47 83 -57 96 -10 13 -18 31 -18 39 0 9 -6 23 -14 31 -28 34 -216 426 -216 453 0 5 -17 51 -39 101 -21 51 -48 121 -59 157 -11 36 -29 92 -41 125 -28 82 -97 338 -110 405 -5 30 -21 114 -35 185 -24 122 -40 239 -68 485 -15 136 -15 664 0 800 28 246 44 363 68 485 14 72 30 155 35 185 13 67 82 323 110 405 12 33 30 89 41 125 11 36 38 106 59 157 22 50 39 96 39 101 0 26 189 420 216 453 8 8 14 22 14 31 0 8 8 26 18 39 10 13 36 57 57 97 22 39 42 72 46 72 4 0 12 15 20 33 7 17 15 34 18 37 12 10 71 101 71 108 0 4 18 29 40 56 22 26 40 54 40 61 0 7 4 15 8 17 8 3 109 134 150 194 12 19 26 34 31 34 5 0 20 17 32 38 13 20 36 48 51 60 16 13 28 29 28 34 0 12 473 488 485 488 4 0 27 17 50 38 23 20 60 53 83 74 22 20 50 39 61 43 12 3 21 11 21 16 0 5 34 32 75 61 41 29 75 56 75 60 0 4 6 8 14 8 8 0 36 18 62 40 27 22 52 40 56 40 5 0 31 17 59 37 29 20 64 44 80 52 84 48 168 97 200 117 19 13 41 24 49 24 7 0 21 6 29 14 33 27 427 216 453 216 5 0 51 17 101 39 51 21 121 48 157 59 36 11 92 29 125 40 99 34 340 102 361 102 11 0 79 13 150 30 72 16 171 34 220 39 49 6 141 17 204 26 63 8 169 19 235 24 141 11 569 6 705 -8z"
       id="path1"
       style="fill:#2dc1b5;fill-opacity:1" />
  </g>
</svg>
