<?xml version="1.0" encoding="UTF-8" standalone="no"?>
<svg
   version="1.0"
   width="2179.000000pt"
   height="2454.000000pt"
   viewBox="0 0 2179.000000 2454.000000"
   preserveAspectRatio="xMidYMid meet"
   id="svg6"
   sodipodi:docname="Gobelin-Grey__leg_L_Forth.svg"
   inkscape:version="1.4.2 (f4327f4, 2025-05-13)"
   xml:space="preserve"
   xmlns:inkscape="http://www.inkscape.org/namespaces/inkscape"
   xmlns:sodipodi="http://sodipodi.sourceforge.net/DTD/sodipodi-0.dtd"
   xmlns:xlink="http://www.w3.org/1999/xlink"
   xmlns="http://www.w3.org/2000/svg"
   xmlns:svg="http://www.w3.org/2000/svg"><defs
     id="defs6"><linearGradient
       id="linearGradient8"
       inkscape:collect="always"><stop
         style="stop-color:#b8116e;stop-opacity:1;"
         offset="0"
         id="stop8" /><stop
         style="stop-color:#b8116e;stop-opacity:0;"
         offset="1"
         id="stop9" /></linearGradient><linearGradient
       inkscape:collect="always"
       xlink:href="#linearGradient8"
       id="linearGradient9"
       x1="1.6040064"
       y1="12271.559"
       x2="21789.706"
       y2="12271.559"
       gradientUnits="userSpaceOnUse" /><linearGradient
       inkscape:collect="always"
       xlink:href="#linearGradient8"
       id="linearGradient1"
       gradientUnits="userSpaceOnUse"
       x1="1.6040064"
       y1="12271.559"
       x2="21789.706"
       y2="12271.559" /><linearGradient
       inkscape:collect="always"
       xlink:href="#linearGradient8"
       id="linearGradient2"
       gradientUnits="userSpaceOnUse"
       x1="1.6040064"
       y1="12271.559"
       x2="21789.706"
       y2="12271.559" /><linearGradient
       inkscape:collect="always"
       xlink:href="#linearGradient8"
       id="linearGradient3"
       gradientUnits="userSpaceOnUse"
       x1="1.6040064"
       y1="12271.559"
       x2="21789.706"
       y2="12271.559" /><linearGradient
       inkscape:collect="always"
       xlink:href="#linearGradient8"
       id="linearGradient4"
       gradientUnits="userSpaceOnUse"
       x1="1.6040064"
       y1="12271.559"
       x2="21789.706"
       y2="12271.559" /><linearGradient
       inkscape:collect="always"
       xlink:href="#linearGradient8"
       id="linearGradient5"
       gradientUnits="userSpaceOnUse"
       x1="1.6040064"
       y1="12271.559"
       x2="21789.706"
       y2="12271.559" /><linearGradient
       inkscape:collect="always"
       xlink:href="#linearGradient8"
       id="linearGradient6"
       gradientUnits="userSpaceOnUse"
       x1="1.6040064"
       y1="12271.559"
       x2="21789.706"
       y2="12271.559" /></defs><sodipodi:namedview
     id="namedview6"
     pagecolor="#ffffff"
     bordercolor="#000000"
     borderopacity="0.25"
     inkscape:showpageshadow="2"
     inkscape:pageopacity="0.0"
     inkscape:pagecheckerboard="0"
     inkscape:deskcolor="#d1d1d1"
     inkscape:document-units="pt"
     inkscape:zoom="0.35355339"
     inkscape:cx="2343.3519"
     inkscape:cy="386.0803"
     inkscape:window-width="1920"
     inkscape:window-height="991"
     inkscape:window-x="-9"
     inkscape:window-y="-9"
     inkscape:window-maximized="1"
     inkscape:current-layer="svg6" /><g
     id="g1"
     inkscape:label="Goblin (colors)"
     transform="translate(0.02959936,-0.1377973)"
     style="display:inline"><path
       style="mix-blend-mode:normal;fill:#91968f;fill-opacity:1;stroke:none;stroke-width:0.75;stroke-opacity:0"
       d="m 42.183601,2106.6155 87.828289,-17.3973 44.49433,-22.1527 165.87517,-117.8587 58.33409,-59.5246 57.93726,-82.1439 43.25452,-52.7785 49.60382,-38.8893 121.82697,-48.8102 -15.75944,-70.2978 -7.85684,-84.7417 5.61203,-185.197 18.79791,-129.6108 35.07759,-109.4618 -15.71369,-74.9205 -2.52541,-57.804 11.22406,-62.57415 18.2391,-41.52908 33.95282,-45.17685 41.96932,-134.33416 12.3018,-53.96895 44.04818,-96.82665 88.49317,-125.00162 78.96925,-81.74709 211.1138,-193.6533 81.7821,-49.924889 105.5062,-24.692937 127.9543,8.97925 107.1898,43.212637 42.6514,2.806019 -27.4989,-42.090234 -3.3672,-19.080906 70.7116,31.988578 20.2033,-27.498954 57.4146,-32.43013 85.7154,-4.7619669 58.3341,23.8098319 36.1116,46.826007 5.5557,27.778134 -17.0637,34.12743 13.0953,15.87322 68.2549,20.23836 66.2707,44.84185 37.6989,53.17529 3.9683,33.33376 -20.2384,-1.58732 -38.0957,-55.15945 -53.9689,-28.17496 -73.0169,-4.36514 -7.1429,17.46054 -9.1271,3.57148 -7.143,24.6035 8.7303,5.55562 -0.3968,23.80983 16.2701,20.23836 -14.286,14.68273 -205.1553,-21.92632 -50.7888,9.82106 -54.3774,27.18482 -3.5714,28.17497 -30.1591,20.63519 -59.5246,48.81015 -131.2855,66.56513 129.3573,43.49324 24.1318,-20.20331 20.2033,-60.32933 76.3236,-3.92843 13.1883,10.94346 11.224,33.39159 -13.7494,14.31068 -3.6479,17.3973 -14.3107,-6.73444 1.1225,-16.8361 -8.9793,-15.43308 -26.6571,0.5612 -14.3107,14.03008 -2.2448,28.76166 4.4896,36.8991 -1.8239,16.6958 -6.3136,9.82105 -68.6224,16.70792 -124.208,3.17464 -98.0172,20.63519 -114.6216,-17.36812 -75.4947,131.66409 -61.3679,73.48704 -77.8851,29.28328 1.1905,29.3655 206.8227,206.4883 150.3248,195.1042 113.4935,202.3836 28.5686,104.2279 -60.315,628.3212 10.9291,56.6271 39.8651,33.0567 61.5088,27.7781 80.9534,19.0478 88.4932,2.7779 48.0165,14.6827 -33.7306,6.7461 -5.9524,42.8577 -27.7781,10.7144 h -370.0704 l -43.4932,-17.9218 -11.7853,-33.3916 7.0151,-47.9828 33.3915,-68.1862 8.4181,-106.6286 -7.211,-166.3709 -23.8098,-89.6837 -24.6035,-72.2231 -9.9207,-128.1763 28.5717,-172.6213 -52.258,-38.4758 -177.6208,-173.1312 -54.1561,-72.3952 -82.21618,-88.3895 -58.0845,521.6383 -23.57055,92.0374 -29.18257,44.8962 -44.89628,31.7079 -507.39333,286.6833 -52.38162,42.2624 -9.12711,40.0799 1.98416,36.5084 20.23835,76.5883 10.31759,23.413 88.89005,1.9841 61.90556,15.8732 -33.33376,5.1588 1.98414,34.1275 -16.66688,20.2383 H 181.64918 L 152.28372,2422.2288 103.07673,2311.9099 5.4564196,2188.4956 5.0595894,2137.7013 20.139149,2117.463 Z"
       id="path9"
       inkscape:label="Skin color"
       sodipodi:nodetypes="ccccccccccccccccccccccccccccccccccccccccccccccccccccccccccccccccccccccccccccccccccccccccccccccccccccccccccccccccccccccccccccccccccccccccccc" /><g
       id="g11"
       inkscape:label="Nails"><path
         style="fill:#b4ca9e;fill-opacity:1;stroke-width:0.75;stroke-opacity:0"
         d="m 299.60705,2370.0704 84.62412,12.2025 -26.09161,8.3335 -48.90936,-9.4247"
         id="path11"
         inkscape:label="Big toe_L" /><path
         style="fill:#b4ca9e;fill-opacity:1;stroke-width:0.75;stroke-opacity:0"
         d="m 1629.783,2394.6739 43.2545,-0.9921 -13.4922,-11.6073 41.8656,-12.6986 68.0257,18.2274 -85.7571,21.9925 c 0,0 -44.9664,-4.8404 -45.1768,-5.2613 -0.2105,-0.4209 -8.7197,-9.6606 -8.7197,-9.6606 z"
         id="path12"
         inkscape:label="Toes_R" /></g><path
       id="path16"
       style="fill:#d7cb64;fill-opacity:1;stroke-width:0.75;stroke-opacity:0"
       inkscape:label="Teeth color"
       d="M 1951.3063 224.67784 L 1958.1296 263.49473 L 1964.4914 265.87071 L 1973.7507 234.86289 L 1951.3063 224.67784 z " /><path
       id="path15"
       style="fill:#000000;fill-opacity:1;stroke-width:0.75;stroke-opacity:0"
       inkscape:label="Teeth color"
       d="M 1945.5349 222.0587 L 1923.5944 246.70323 L 1926.5373 249.72373 L 1944.7526 258.49815 L 1958.1296 263.49473 L 1951.3063 224.67784 L 1945.5349 222.0587 z " /><path
       id="path14"
       style="fill:#d7cb64;fill-opacity:1;stroke-width:0.75;stroke-opacity:0"
       inkscape:label="Teeth color"
       d="M 1894.7619 179.72471 L 1897.4279 219.85118 L 1923.5944 246.70323 L 1945.5349 222.0587 L 1922.1208 211.43272 L 1894.7619 179.72471 z " /><path
       style="mix-blend-mode:normal;fill:#e6e5db;fill-opacity:1;stroke-width:0.75;stroke-opacity:0"
       d="m 1925.8186,109.32681 25.0003,17.85738 5.5556,7.34136 -8.4326,7.53978 -12.9962,0.39683 -16.2701,-4.96038 -7.0437,-8.53186 0.6945,-21.32964"
       id="path8"
       inkscape:label="Sclera" /><path
       style="mix-blend-mode:normal;fill:#cabca5;fill-opacity:1;stroke-width:0.75;stroke-opacity:0"
       d="m 735.7373,828.61642 c 3.08662,0.8418 162.46833,53.59493 162.46833,53.59493 l 106.34797,9.2598 6.1733,-19.9227 -124.30655,-12.06585 -140.02019,-49.38585 -12.06587,6.45382"
       id="path7"
       inkscape:label="Rope color" /><g
       id="g16"
       inkscape:label="Eye color (goblin)"
       transform="matrix(0.78843181,0,0,0.78812231,410.9068,28.215694)"
       style="stroke-width:3;stroke-dasharray:none"><ellipse
         style="mix-blend-mode:normal;fill:#ffff00;fill-rule:nonzero;stroke:#c1c11a;stroke-width:3;stroke-linejoin:round;stroke-dasharray:none;stroke-opacity:1;paint-order:stroke fill markers;fill-opacity:1"
         id="path13"
         cx="1945.406"
         cy="132.75301"
         rx="9.1000004"
         ry="9.1499996"
         inkscape:label="Iris" /><ellipse
         style="mix-blend-mode:normal;fill:#39391a;fill-opacity:1;fill-rule:nonzero;stroke:#200011;stroke-width:1.49947;stroke-linejoin:round;stroke-dasharray:none;stroke-opacity:1;paint-order:stroke fill markers"
         id="ellipse16"
         cx="1945.4052"
         cy="132.75269"
         rx="4.5500727"
         ry="4.5749927"
         inkscape:label="Pupil" /></g></g><g
     transform="matrix(0.1,0,0,-0.1,0.02959936,2453.8623)"
     fill="#000000"
     stroke="none"
     id="g6"
     style="display:inline;fill:#000000;fill-opacity:1;stroke:url(#linearGradient9);stroke-opacity:1"
     inkscape:label="Goblin"><path
       d="m 18505,24525 c -357,-47 -608,-139 -855,-313 -117,-83 -247,-210 -285,-278 l -29,-52 -73,34 c -40,18 -139,72 -220,119 -161,95 -209,117 -308,140 -89,20 -122,19 -135,-4 -15,-30 -13,-50 21,-152 45,-135 107,-251 188,-351 l 70,-88 h -69 c -155,0 -288,41 -587,178 -385,178 -701,276 -1043,326 -149,22 -557,56 -670,56 -129,0 -442,-25 -570,-45 -414,-65 -826,-213 -1190,-428 -461,-273 -678,-452 -1345,-1109 -170,-168 -366,-354 -434,-414 -69,-60 -172,-153 -230,-207 -58,-53 -185,-168 -281,-255 -285,-256 -907,-877 -1050,-1049 -345,-414 -695,-906 -897,-1260 -153,-270 -335,-668 -436,-958 -87,-247 -134,-420 -252,-925 -79,-339 -179,-654 -292,-917 -31,-74 -38,-83 -62,-83 -122,0 -211,-107 -182,-217 11,-42 10,-44 -30,-95 -60,-79 -192,-355 -242,-508 -60,-181 -115,-424 -129,-568 -17,-175 -14,-542 6,-697 26,-205 84,-478 130,-620 l 43,-130 -42,-115 c -170,-464 -276,-843 -374,-1340 -94,-477 -143,-885 -171,-1430 -36,-719 -37,-1097 -5,-1575 39,-588 97,-927 208,-1224 l 33,-89 -150,-37 c -495,-122 -999,-354 -1316,-603 -130,-103 -347,-323 -455,-462 -49,-63 -119,-151 -155,-195 -93,-112 -154,-193 -235,-312 -256,-376 -465,-646 -647,-837 -158,-165 -516,-473 -748,-644 -190,-140 -208,-154 -390,-289 -418,-310 -965,-663 -1148,-740 -114,-48 -275,-84 -507,-113 -313,-39 -417,-65 -571,-141 -193,-95 -281,-179 -343,-326 -79,-186 -62,-404 49,-628 75,-152 268,-404 590,-770 174,-198 266,-322 372,-500 58,-97 220,-454 303,-665 42,-107 85,-217 96,-245 33,-82 107,-191 162,-239 28,-25 89,-65 135,-88 l 85,-43 h 731 c 820,0 791,-2 892,74 59,44 128,145 150,220 23,78 28,185 11,247 l -13,51 120,7 c 135,8 313,30 322,39 21,21 -364,167 -516,196 -248,47 -230,46 -645,46 -220,1 -417,4 -438,9 -29,6 -38,14 -43,35 -11,52 -36,107 -64,142 -31,39 -58,124 -135,424 -107,415 -128,685 -73,930 16,73 67,160 145,246 55,61 105,100 258,202 224,149 382,249 635,402 102,62 268,163 370,225 102,62 253,151 335,198 83,46 161,93 175,102 14,10 194,113 400,230 206,117 416,236 465,264 86,51 222,126 350,196 160,87 367,203 530,299 99,57 335,193 525,301 190,108 453,259 585,335 132,76 353,195 490,265 369,187 457,238 570,334 207,175 359,324 451,441 65,82 137,259 164,400 7,33 36,155 65,271 54,213 110,521 165,914 17,118 32,222 35,230 2,8 14,87 25,175 11,88 29,225 40,305 10,80 31,244 45,365 14,121 39,326 55,455 16,129 34,289 40,355 6,66 20,192 30,280 11,88 25,212 30,275 12,132 49,439 86,715 14,105 29,240 34,300 5,61 28,297 50,525 23,228 43,462 46,520 8,168 5,163 76,94 277,-272 592,-635 861,-994 239,-321 244,-326 341,-445 236,-286 715,-784 1112,-1154 602,-563 835,-756 1139,-946 33,-21 61,-38 63,-40 1,-1 -9,-22 -22,-46 -97,-174 -208,-837 -266,-1593 -14,-184 -12,-506 5,-754 37,-545 101,-816 314,-1349 99,-249 204,-641 231,-863 48,-401 86,-1839 61,-2248 -19,-288 -42,-435 -91,-567 -38,-101 -144,-309 -176,-345 -7,-9 -25,-43 -39,-75 -14,-33 -32,-71 -39,-85 -26,-47 -75,-205 -95,-307 -23,-113 -28,-271 -10,-355 49,-229 228,-392 496,-451 l 98,-22 h 1885 c 1804,0 1887,1 1941,18 77,26 146,81 196,157 56,84 77,154 77,260 1,47 6,88 11,92 6,4 26,8 45,9 19,0 44,4 55,8 18,7 17,10 -13,28 l -34,21 64,6 c 195,20 275,30 288,37 37,19 -342,166 -510,198 -249,47 -230,46 -640,46 -455,1 -507,6 -805,85 -407,108 -894,330 -1139,519 -117,90 -197,203 -238,331 -22,70 -23,90 -23,325 1,138 9,360 18,495 9,135 24,362 32,505 15,259 39,566 70,870 9,88 20,228 25,310 14,228 29,399 45,520 8,61 26,225 40,365 14,140 31,309 40,375 8,66 21,176 29,245 20,159 41,388 66,705 11,138 26,309 34,380 9,72 20,182 26,245 13,132 81,704 110,925 59,441 -15,850 -274,1513 -91,232 -256,548 -470,897 -68,110 -152,252 -188,315 -36,63 -125,210 -198,325 -73,116 -155,248 -184,295 -57,95 -262,404 -405,610 -174,251 -399,542 -681,880 -80,96 -185,222 -232,280 -302,365 -610,699 -1232,1338 -413,424 -692,698 -1026,1008 l -75,69 23,45 c 25,50 27,79 8,132 l -13,36 45,7 c 89,13 249,68 367,125 199,96 296,167 503,365 170,163 243,256 415,535 51,83 165,312 228,458 39,91 69,139 152,250 136,179 278,394 334,507 25,50 46,91 48,93 1,1 28,-7 60,-18 80,-28 294,-86 383,-105 101,-21 363,-53 502,-60 198,-12 522,26 731,84 422,118 665,152 1094,154 160,1 360,0 445,-3 l 155,-5 90,36 c 150,61 161,63 278,50 150,-17 225,3 275,72 59,83 73,105 93,145 38,81 41,149 14,382 -15,134 -21,220 -15,235 5,12 16,63 25,112 9,49 19,94 23,99 4,6 24,20 45,33 20,12 43,30 50,39 9,13 28,17 77,17 36,0 86,3 112,7 47,7 48,7 64,-25 9,-17 24,-41 34,-52 16,-17 17,-28 9,-75 -13,-76 -3,-125 35,-167 37,-43 102,-75 137,-66 48,12 64,37 79,131 8,46 16,59 58,97 65,59 96,129 89,201 -6,62 -64,210 -114,294 -40,68 -98,124 -152,148 -49,22 -238,21 -486,-2 -220,-20 -282,-35 -329,-77 -44,-38 -63,-90 -127,-334 -27,-104 -62,-215 -77,-245 -23,-47 -35,-59 -85,-84 -32,-16 -72,-42 -89,-58 -30,-28 -31,-28 -92,-17 -147,26 -381,82 -506,120 -156,47 -623,231 -612,241 4,3 45,21 92,39 334,127 854,393 1115,570 108,73 321,248 500,411 78,71 150,125 231,173 64,39 139,90 166,115 42,39 52,55 69,115 10,38 19,97 19,131 v 62 l 79,51 c 130,83 191,116 296,162 109,47 116,48 350,38 87,-4 92,-3 170,35 104,50 164,66 250,66 84,0 235,-22 343,-49 167,-43 532,-96 897,-131 66,-7 163,-20 216,-31 290,-57 515,-19 590,100 17,25 32,56 36,69 9,37 -26,102 -95,174 l -64,67 6,68 c 3,37 8,87 12,110 5,37 3,45 -21,67 -15,14 -40,28 -56,31 -17,4 -28,12 -25,18 7,17 33,104 46,154 10,40 12,42 47,41 25,-1 40,5 51,18 23,31 62,117 62,140 0,41 23,48 113,36 45,-6 150,-16 232,-22 257,-19 414,-57 598,-144 213,-101 349,-226 519,-483 132,-197 183,-256 244,-279 39,-15 51,-16 82,-4 125,43 146,189 56,384 -36,80 -122,229 -189,329 -129,195 -394,432 -664,595 -226,136 -393,204 -701,283 -107,28 -208,58 -225,68 -39,22 -55,55 -55,114 0,41 9,65 55,145 70,124 85,169 85,251 -1,183 -83,349 -281,564 -61,66 -111,107 -207,170 -185,122 -323,177 -532,212 -216,37 -345,42 -515,20 z m 383,-111 c 179,-20 303,-53 430,-114 158,-76 256,-146 368,-263 163,-172 243,-329 244,-480 0,-84 -13,-121 -82,-222 -53,-79 -61,-107 -56,-186 4,-57 11,-79 35,-112 47,-68 100,-93 299,-143 293,-73 417,-121 619,-239 373,-218 595,-422 788,-723 121,-187 177,-367 133,-427 -33,-46 -118,41 -251,256 -185,299 -413,472 -765,580 -111,35 -165,43 -435,70 -369,36 -357,36 -395,2 -29,-26 -34,-39 -41,-92 -4,-35 -12,-68 -18,-74 -16,-16 -225,46 -326,96 -147,73 -322,219 -402,337 -53,79 -73,136 -73,211 0,37 -4,70 -9,73 -5,3 -17,-6 -26,-21 -15,-22 -19,-57 -22,-212 -6,-219 13,-344 67,-452 43,-85 159,-198 296,-289 116,-76 174,-101 304,-132 108,-25 115,-31 99,-92 -14,-57 -6,-135 18,-173 9,-15 43,-56 75,-91 37,-39 58,-71 58,-86 0,-32 -58,-82 -112,-98 -62,-18 -296,-15 -383,5 -127,29 -443,156 -713,287 -282,137 -404,225 -498,356 -48,67 -103,181 -129,266 -21,71 -57,448 -50,519 4,32 3,59 -3,63 -5,3 -28,-17 -51,-43 -47,-57 -93,-76 -157,-67 -58,8 -111,36 -155,83 -49,51 -75,96 -142,241 -77,169 -139,254 -354,494 -170,189 -249,294 -303,402 -53,108 -69,156 -51,156 31,0 155,-57 246,-115 233,-146 354,-201 700,-315 121,-40 246,-86 278,-103 47,-25 60,-28 67,-17 12,19 -1,39 -55,89 -56,52 -158,100 -360,172 -83,29 -152,54 -154,56 -9,7 56,90 128,162 178,178 467,326 736,376 243,46 383,53 583,29 z m -4101,-405 c 151,-12 552,-72 673,-100 174,-40 463,-140 685,-237 414,-179 452,-191 632,-199 l 121,-6 7,-52 c 3,-29 12,-61 20,-71 15,-21 14,-24 34,61 7,27 15,52 18,55 8,8 117,-114 205,-230 72,-95 106,-157 211,-380 39,-84 139,-185 222,-226 50,-24 72,-29 135,-29 61,0 81,4 106,22 l 31,22 6,-142 c 11,-252 45,-405 121,-534 102,-173 312,-326 696,-503 85,-40 157,-74 160,-77 6,-6 -59,2 -235,28 -164,25 -235,38 -468,89 -313,68 -431,64 -592,-19 -60,-31 -79,-36 -130,-34 -291,9 -261,12 -365,-31 -96,-39 -225,-107 -336,-177 -33,-22 -63,-39 -66,-39 -3,0 -11,35 -17,78 -7,42 -21,120 -31,172 -10,52 -28,156 -40,230 -11,74 -28,169 -36,210 -10,55 -11,84 -4,110 25,85 54,362 54,515 -1,102 -3,116 -34,189 -18,44 -52,102 -74,130 -51,62 -147,127 -224,151 -31,10 -104,42 -162,70 -191,96 -318,121 -549,112 -176,-7 -387,-43 -527,-90 -106,-35 -232,-106 -281,-157 l -28,-30 h -210 c -347,0 -698,-51 -1013,-146 -259,-78 -511,-189 -638,-280 -88,-62 -202,-189 -264,-293 l -53,-90 -71,-27 c -297,-112 -523,-268 -788,-543 -332,-346 -571,-732 -714,-1156 -51,-150 -121,-292 -216,-436 -184,-278 -208,-325 -208,-408 1,-63 21,-105 149,-293 115,-171 238,-319 337,-404 97,-84 283,-218 379,-274 118,-68 395,-203 568,-276 75,-32 137,-62 137,-68 0,-5 -28,-61 -61,-125 -58,-110 -139,-233 -311,-471 -58,-80 -102,-160 -181,-328 -119,-253 -148,-304 -295,-525 -153,-232 -352,-432 -579,-583 -111,-74 -307,-167 -408,-194 -106,-28 -263,-60 -299,-60 -17,0 -58,-7 -92,-16 -60,-15 -67,-14 -136,5 -102,29 -238,37 -308,18 -50,-14 -57,-14 -90,3 -92,47 -171,63 -310,65 -135,2 -135,2 -180,34 -25,17 -84,45 -130,61 -71,25 -101,30 -182,30 -86,0 -100,3 -125,23 -78,63 -168,95 -283,101 -66,3 -84,8 -121,33 -111,76 -201,112 -281,113 -22,0 -68,26 -137,77 -2,2 20,63 49,136 116,287 174,482 335,1122 129,513 134,530 200,717 102,290 259,629 430,929 178,310 528,808 779,1108 107,128 747,796 825,861 16,14 128,115 248,225 121,110 298,269 394,354 96,84 371,343 613,575 522,501 717,671 971,850 385,269 632,397 1025,529 369,124 880,182 1307,146 z m 1001,-964 c 53,-8 112,-19 130,-24 79,-23 118,-51 71,-51 -38,0 -274,-61 -379,-97 -152,-54 -359,-160 -480,-247 -152,-109 -270,-231 -258,-267 2,-6 35,20 74,58 233,227 702,433 1076,474 81,9 108,8 172,-6 128,-29 225,-106 277,-222 29,-63 36,-206 14,-272 -36,-110 -192,-282 -383,-424 -212,-158 -426,-252 -722,-317 -52,-12 -106,-26 -120,-32 l -25,-10 24,-9 c 28,-11 71,-6 221,23 332,64 657,239 918,492 l 72,70 v -39 c 0,-115 -95,-334 -214,-490 -98,-130 -99,-131 -181,-197 -147,-118 -212,-142 -410,-153 -150,-8 -271,10 -480,70 -169,49 -215,58 -239,49 -37,-14 -44,-11 289,-134 55,-21 138,-50 185,-65 47,-15 89,-31 94,-36 13,-11 -40,-87 -160,-229 -193,-231 -344,-366 -569,-512 -169,-110 -598,-339 -799,-428 -72,-31 -162,-71 -201,-88 -222,-98 -407,-152 -530,-154 -44,-1 -242,2 -440,7 -308,6 -378,5 -486,-9 -145,-19 -268,-48 -280,-68 -15,-23 -10,-30 17,-24 62,16 184,26 384,32 204,6 284,3 630,-26 63,-6 198,-17 300,-25 217,-18 353,-37 468,-66 93,-23 392,-134 612,-228 245,-105 518,-206 666,-246 276,-76 358,-97 465,-117 l 116,-21 18,-49 c 9,-27 26,-53 36,-59 23,-12 22,-14 19,87 -2,91 -3,90 88,134 100,48 123,90 191,353 25,98 51,179 56,179 6,0 27,15 47,34 61,54 90,58 359,40 254,-16 282,-23 327,-75 67,-78 95,-179 91,-331 -4,-134 -14,-157 -48,-114 -19,24 -21,36 -16,79 4,27 13,57 21,66 20,23 17,37 -8,41 -16,2 -34,24 -65,83 -23,44 -45,95 -49,113 -9,47 -21,49 -58,9 -27,-30 -41,-36 -90,-42 -76,-10 -145,-1 -196,25 -65,33 -92,10 -50,-43 28,-35 25,-45 -15,-64 -31,-15 -42,-15 -81,-5 -25,7 -50,10 -55,7 -18,-12 -8,-36 21,-53 22,-12 30,-23 27,-37 -3,-11 -14,-66 -26,-123 -12,-57 -32,-132 -45,-166 -57,-152 -69,-315 -35,-498 11,-60 10,-72 -5,-106 -16,-36 -23,-41 -69,-50 -29,-6 -90,-8 -137,-5 -102,6 -191,-12 -282,-58 -76,-39 -108,-40 -476,-21 -277,14 -436,8 -747,-28 -193,-23 -275,-37 -313,-52 -39,-15 -271,-76 -394,-104 -343,-77 -744,-69 -1118,22 -184,44 -293,79 -500,161 -252,100 -642,301 -800,412 -261,184 -360,282 -508,505 -145,217 -154,234 -146,288 8,52 29,90 154,278 160,240 163,246 241,465 167,471 340,747 714,1141 209,219 378,350 594,458 91,46 283,110 407,135 53,11 121,32 152,47 78,38 281,214 247,214 -11,0 -91,-44 -133,-72 -97,-67 -247,-115 -331,-106 l -32,3 32,50 c 18,28 71,89 118,136 171,171 421,284 875,394 291,71 490,95 792,95 159,0 164,-1 164,-21 0,-11 -6,-73 -14,-137 -21,-164 -27,-542 -10,-542 7,0 17,8 22,18 10,18 26,171 38,347 12,194 68,346 153,418 59,49 192,106 334,142 215,55 412,68 595,40 z m 3260,-506 c 17,-20 32,-40 32,-45 -1,-5 -18,-28 -39,-52 l -38,-43 -11,83 c -7,46 -12,97 -11,113 v 30 l 17,-25 c 9,-14 32,-41 50,-61 z m 152,-168 c 5,-20 12,-85 16,-146 l 7,-109 -42,34 c -50,39 -136,140 -146,169 -7,22 0,33 55,98 l 34,41 33,-25 c 20,-15 37,-40 43,-62 z m 168,-85 c 9,-5 -2,-28 -40,-83 l -53,-75 -7,83 c -4,46 -9,99 -12,116 l -5,33 52,-33 c 29,-18 58,-37 65,-41 z m 141,-194 c 13,-73 22,-134 19,-137 -10,-10 -135,42 -187,78 l -50,33 38,51 c 20,28 51,71 66,96 l 30,46 30,-17 c 28,-17 31,-25 54,-150 z m 140,75 c 18,-6 35,-17 38,-24 3,-8 -9,-59 -26,-114 -25,-76 -36,-100 -48,-97 -23,4 -30,22 -48,128 -9,52 -19,108 -21,123 l -6,28 39,-17 c 21,-9 53,-21 72,-27 z m -3084,-903 c 36,-272 32,-350 -21,-405 -16,-16 -76,-60 -134,-96 -131,-83 -171,-114 -362,-284 -291,-258 -424,-353 -688,-494 -91,-48 -169,-91 -175,-95 -32,-25 -512,-237 -732,-325 l -93,-36 -87,39 c -145,65 -319,121 -465,151 -76,15 -140,30 -143,32 -3,3 23,17 58,32 340,143 770,348 927,442 302,181 401,257 611,465 182,181 290,312 359,433 35,62 36,63 142,71 77,6 137,29 258,99 66,38 111,76 203,171 113,115 181,207 247,336 l 24,45 23,-195 c 12,-107 34,-281 48,-386 z m 334,-1457 c 48,-32 97,-103 135,-199 30,-75 45,-181 28,-192 -7,-4 -14,4 -18,21 -31,143 -75,235 -139,291 -80,70 -115,77 -385,77 -129,0 -219,1 -198,3 218,20 378,30 449,29 75,-2 91,-5 128,-30 z m -669,-28 c -25,-11 -55,-30 -67,-41 -37,-35 -26,-13 13,26 26,26 44,36 68,36 31,0 30,-1 -14,-21 z m 100,-909 c 21,-160 19,-224 -7,-317 -18,-67 -33,-76 -34,-21 -1,24 -3,54 -5,68 -2,14 -7,83 -10,154 -5,107 -3,142 12,202 10,41 19,72 21,71 1,-2 12,-73 23,-157 z M 7552,16363 c 10,-9 18,-20 18,-24 0,-4 -30,-22 -66,-40 -55,-26 -70,-29 -90,-20 -31,14 -31,45 1,76 30,31 107,35 137,8 z m 282,-107 c 35,-8 68,-24 83,-38 l 24,-25 -66,-21 c -105,-35 -171,-25 -254,37 l -24,19 24,13 c 54,29 130,34 213,15 z m -313,-112 c 61,-65 202,-112 294,-97 29,5 40,0 75,-30 23,-20 76,-53 118,-74 72,-36 83,-38 172,-39 84,-1 101,-4 140,-27 25,-14 80,-42 123,-63 89,-42 184,-55 261,-35 42,10 47,9 73,-15 57,-54 115,-85 189,-104 93,-24 137,-25 215,-5 56,15 60,15 87,-4 53,-39 136,-54 246,-47 148,11 145,11 221,-18 80,-31 208,-45 268,-28 l 38,11 152,-143 c 229,-216 670,-656 983,-981 289,-301 813,-864 926,-995 35,-41 118,-138 183,-214 66,-76 152,-178 190,-225 39,-48 98,-120 132,-161 397,-480 903,-1183 1147,-1595 49,-82 136,-229 194,-325 58,-96 119,-200 137,-230 17,-30 59,-100 92,-155 401,-665 507,-884 657,-1345 96,-297 131,-456 147,-657 17,-211 3,-398 -76,-1023 -8,-63 -17,-151 -20,-195 -3,-44 -10,-116 -15,-160 -15,-123 -38,-347 -60,-590 -12,-121 -29,-292 -40,-380 -21,-178 -35,-310 -50,-490 -6,-66 -19,-194 -30,-285 -11,-91 -54,-520 -95,-955 -68,-719 -94,-1052 -125,-1585 -6,-102 -17,-286 -25,-410 -28,-432 -17,-575 54,-740 62,-144 145,-242 299,-353 174,-125 318,-202 607,-322 326,-136 615,-218 895,-254 152,-20 149,-21 -73,-42 -228,-20 -419,14 -752,135 -126,47 -278,105 -337,130 -108,47 -138,54 -138,36 0,-40 543,-277 810,-355 156,-45 208,-55 298,-56 l 77,-2 -90,-14 c -144,-22 -371,-2 -615,56 -96,22 -406,123 -451,147 -29,15 -49,12 -49,-6 0,-16 155,-89 305,-145 323,-120 674,-177 894,-145 64,9 64,9 164,-40 54,-27 138,-59 184,-71 79,-21 87,-25 99,-56 43,-103 -11,-223 -114,-253 -26,-8 -496,-10 -1577,-8 l -1540,3 -78,22 c -170,49 -311,155 -370,281 -29,61 -32,78 -35,183 -2,64 1,148 7,187 15,99 91,318 140,404 203,359 264,531 298,843 45,413 5,2024 -61,2490 -50,350 -128,613 -325,1105 -88,220 -177,633 -203,940 -7,74 -12,299 -12,500 -1,393 2,429 74,991 63,490 142,856 201,928 l 19,24 123,-42 c 122,-41 274,-77 284,-68 7,7 -57,39 -153,77 -119,48 -251,122 -454,255 -328,216 -692,537 -1353,1194 -480,476 -784,816 -1031,1150 -184,248 -245,326 -406,517 -302,359 -892,957 -1121,1137 -74,58 -69,44 -89,242 -14,139 -21,178 -30,168 -16,-15 -32,-187 -25,-262 l 7,-73 -34,7 c -100,20 -386,136 -568,232 -151,79 -367,221 -510,336 -260,209 -450,478 -501,712 -17,78 -18,417 -2,590 12,128 74,457 114,605 28,102 99,319 116,353 19,37 69,38 104,1 z m 744,-36 c 51,-20 75,-35 75,-48 0,-3 -23,-17 -52,-31 -37,-17 -68,-24 -112,-24 -53,0 -70,6 -128,40 -37,22 -68,43 -68,46 0,4 26,14 58,23 31,10 62,19 67,21 21,7 112,-9 160,-27 z m 428,-122 c 37,-13 82,-33 99,-44 l 32,-21 -24,-9 c -14,-5 -42,-17 -64,-26 -21,-9 -62,-16 -90,-16 -53,0 -194,44 -235,72 -21,15 -21,16 31,36 78,30 79,30 133,31 29,0 79,-10 118,-23 z m -1448,-33 c -18,-47 -87,-333 -109,-453 -58,-315 -61,-342 -60,-610 0,-246 1,-258 28,-355 55,-202 157,-362 358,-566 122,-124 270,-249 386,-328 251,-170 656,-361 882,-416 105,-25 167,-70 353,-258 154,-155 157,-159 157,-202 0,-59 -28,-432 -40,-535 -5,-47 -19,-175 -30,-285 -11,-110 -34,-308 -50,-440 -16,-132 -41,-355 -55,-495 -14,-140 -35,-336 -46,-435 -11,-98 -24,-224 -29,-280 -5,-55 -18,-167 -29,-250 -11,-82 -30,-235 -41,-340 -11,-104 -27,-237 -35,-295 -8,-58 -19,-144 -24,-190 -36,-308 -144,-1120 -171,-1280 -11,-63 -35,-221 -54,-350 -19,-129 -51,-300 -71,-380 -20,-80 -52,-215 -71,-300 -22,-99 -46,-180 -68,-226 -80,-169 -207,-317 -436,-512 -188,-159 -308,-235 -585,-372 -132,-66 -343,-177 -470,-249 -126,-71 -335,-188 -463,-258 -287,-158 -687,-382 -887,-498 -320,-185 -813,-464 -1100,-622 -165,-92 -370,-207 -455,-258 -85,-50 -182,-107 -215,-125 -135,-76 -451,-266 -610,-366 -93,-60 -244,-154 -335,-209 -200,-123 -427,-275 -535,-360 -245,-190 -319,-361 -318,-730 0,-262 66,-600 183,-939 11,-33 20,-61 20,-62 0,-2 -16,6 -35,17 -19,12 -46,19 -62,17 l -28,-4 33,-19 c 75,-44 119,-85 155,-146 50,-85 49,-95 -16,-114 -81,-24 -157,-56 -157,-67 0,-7 43,-8 123,-3 89,5 157,2 252,-10 85,-10 190,-15 301,-14 168,2 172,2 215,-23 116,-68 294,-127 430,-143 31,-4 61,-10 67,-14 19,-11 35,-120 29,-192 -6,-67 -38,-154 -78,-211 -12,-17 -47,-42 -78,-57 l -56,-26 h -725 -725 l -54,28 c -71,38 -140,103 -191,182 -43,66 -49,80 -174,390 -138,340 -248,556 -397,776 -85,125 -119,168 -424,540 -289,352 -370,460 -426,574 -68,140 -93,244 -86,360 8,117 28,180 81,257 53,78 114,126 236,185 169,81 290,113 490,127 129,10 375,53 465,83 100,32 327,144 448,221 414,262 679,442 902,613 55,42 134,100 175,129 73,52 251,192 495,388 193,156 376,323 475,434 158,176 350,423 510,658 84,124 174,252 200,285 25,33 57,78 70,100 13,22 60,85 104,140 344,433 552,609 966,823 215,111 411,192 640,265 219,70 326,97 382,97 42,0 47,-3 102,-67 57,-68 223,-223 238,-223 19,0 2,28 -83,142 -109,144 -154,220 -210,353 -115,278 -178,641 -221,1285 -16,244 -16,984 0,1295 59,1135 120,1525 395,2520 58,209 129,422 161,483 13,24 13,24 63,-39 53,-67 113,-112 113,-86 0,13 -23,52 -107,187 -27,42 -54,108 -78,185 -20,66 -43,138 -50,160 -19,55 -52,228 -70,361 -54,415 -40,758 46,1096 44,175 177,548 196,548 3,0 2,-8 -2,-17 z m 1981,-94 c 35,-11 66,-24 69,-29 8,-13 -54,-56 -109,-74 -80,-27 -200,-9 -283,43 l -43,27 32,18 c 84,50 204,55 334,15 z m 414,-39 c 101,-22 94,-19 76,-39 -25,-27 -128,-71 -192,-81 -56,-9 -123,0 -167,22 -18,9 -18,11 4,26 12,8 47,30 78,49 60,36 113,42 201,23 z m 404,-50 c 29,-28 14,-65 -36,-91 -35,-18 -54,-21 -112,-16 -39,2 -84,10 -100,16 l -30,12 50,36 c 78,56 123,74 169,68 22,-3 48,-14 59,-25 z M 3415,765 c 66,-14 160,-35 209,-47 81,-20 87,-23 60,-31 -40,-11 -291,-1 -389,17 -111,20 -235,67 -235,89 0,17 227,-1 355,-28 z m 13860,0 c 66,-14 160,-35 209,-47 81,-20 87,-23 60,-31 -40,-11 -291,-1 -389,17 -111,20 -235,67 -235,89 0,17 227,-1 355,-28 z m -335,-85 c 186,-31 351,-72 320,-81 -66,-18 -319,-3 -435,26 -33,9 -87,29 -120,45 l -60,28 85,1 c 47,1 141,-8 210,-19 z m -329,-26 44,-26 -45,7 c -25,4 -130,10 -235,14 l -190,6 110,8 c 61,4 121,9 135,11 89,11 139,5 181,-20 z m 116,-134 c 103,-22 189,-40 192,-41 3,0 -3,-4 -14,-9 -47,-20 -289,-5 -410,26 -33,8 -82,25 -110,39 l -50,23 103,1 c 86,1 137,-6 289,-39 z m 657,-90 c -1,-68 -6,-96 -27,-143 -61,-136 -112,-166 -295,-174 l -117,-5 47,37 c 61,48 108,138 108,206 v 48 l 58,6 c 112,13 114,21 11,70 l -62,30 119,6 c 65,3 128,5 139,5 18,-1 20,-7 19,-86 z m -384,-78 c 0,-98 -128,-209 -267,-231 l -50,-8 26,51 c 22,43 26,62 25,136 v 85 h 133 133 z"
       id="path1"
       style="fill:#000000;fill-opacity:1;stroke:url(#linearGradient1);stroke-opacity:1"
       inkscape:label="Body" /><path
       d="m 16785,24016 c -17,-12 -18,-18 -7,-54 25,-81 119,-204 332,-432 80,-85 162,-175 182,-199 39,-46 55,-49 45,-9 -7,28 -62,94 -207,248 -159,170 -251,285 -295,369 -12,23 -13,31 -3,25 7,-4 49,-31 93,-59 223,-144 443,-251 655,-320 163,-53 258,-94 278,-118 8,-9 16,-34 19,-55 5,-38 5,-39 -48,-62 -37,-17 -68,-23 -99,-21 -115,8 -146,6 -185,-15 -80,-42 -106,-123 -65,-204 15,-29 35,-47 81,-72 59,-31 119,-94 119,-124 0,-26 42,-82 70,-94 41,-17 69,-8 133,46 61,50 64,59 38,137 -11,31 -10,45 3,84 10,29 13,50 7,56 -12,12 -94,-34 -115,-65 -21,-29 -9,-43 20,-24 13,9 25,16 27,16 3,0 7,-22 11,-48 3,-26 13,-57 20,-68 14,-19 12,-23 -32,-56 -26,-19 -56,-38 -66,-42 -26,-9 -53,18 -81,79 -30,69 -69,111 -126,141 -82,41 -109,108 -65,160 35,43 93,58 161,44 57,-12 120,-2 159,26 11,8 24,14 28,14 14,0 -22,-63 -55,-97 l -31,-33 h 25 c 31,0 81,51 103,104 22,53 20,121 -5,172 -24,50 -56,68 -244,134 -246,87 -311,115 -469,198 -88,47 -198,111 -243,143 -71,50 -134,89 -146,89 -2,0 -12,-6 -22,-14 z"
       id="path2"
       style="fill:#000000;fill-opacity:1;stroke:url(#linearGradient2);stroke-opacity:1"
       inkscape:label="Inner ear" /><path
       d="m 18997,23604 c -25,-25 15,-104 68,-135 30,-18 33,-23 24,-45 -5,-14 -9,-49 -9,-77 0,-156 87,-235 276,-254 86,-8 129,2 173,43 25,22 45,32 55,28 22,-9 66,22 66,46 0,20 -2,20 -30,5 -28,-15 -31,-14 -47,7 -65,80 -201,191 -287,233 -28,13 -80,29 -116,34 -93,13 -117,26 -133,74 -13,40 -27,54 -40,41 z m 330,-230 c 46,-31 86,-60 89,-65 3,-6 -6,-19 -19,-30 -33,-25 -43,-70 -24,-109 15,-30 15,-30 -12,-30 -48,0 -129,26 -171,55 -46,32 -60,69 -60,157 0,109 58,116 197,22 z"
       id="path4"
       style="display:none;fill:#000000;fill-opacity:1;stroke:url(#linearGradient3);stroke-opacity:1"
       inkscape:label="Eye (+black iris)" /><path
       d="m 18997,23604 c -25,-25 15,-104 68,-135 30,-18 33,-23 24,-45 -5,-14 -9,-49 -9,-77 0,-156 87,-235 276,-254 86,-8 129,2 173,43 25,22 45,32 55,28 22,-9 66,22 66,46 0,20 -2,20 -30,5 -28,-15 -31,-14 -47,7 -65,80 -201,191 -287,233 -28,13 -80,29 -116,34 -93,13 -117,26 -133,74 -13,40 -27,54 -40,41 z m 329,-229 c 91,-62 169,-128 185,-156 48,-90 -199,-108 -321,-24 -46,32 -60,69 -60,157 0,109 59,116 196,23 z"
       id="path4-5"
       style="display:inline"
       inkscape:label="Eye (hollow)"
       transform="translate(0.50204037,0.49875)" /><path
       d="m 19056,23731 c -13,-20 3,-28 66,-35 120,-14 269,-77 366,-154 59,-47 87,-77 133,-144 60,-87 82,-72 34,23 -53,103 -188,210 -357,281 -55,24 -93,32 -154,36 -54,3 -84,1 -88,-7 z"
       id="path3"
       style="fill:#000000;fill-opacity:1;stroke:url(#linearGradient4);stroke-opacity:1"
       inkscape:label="Eyebrow" /><path
       d="m 19911,22579 c -53,-10 -121,-53 -121,-75 0,-12 5,-14 18,-9 62,27 89,29 138,8 132,-56 265,-80 277,-49 10,26 -123,104 -204,121 -19,3 -41,8 -49,10 -8,1 -35,-1 -59,-6 z"
       id="path6"
       style="fill:#000000;fill-opacity:1;stroke:url(#linearGradient5);stroke-opacity:1"
       inkscape:label="Nose (hole)" /><path
       d="m 19810,22723 c -55,-28 -126,-105 -114,-124 3,-5 30,11 60,35 70,58 109,70 198,63 81,-7 165,-34 235,-77 54,-34 61,-36 61,-17 0,18 -88,78 -165,114 -46,21 -78,28 -140,31 -72,3 -86,0 -135,-25 z"
       id="path5"
       style="fill:#000000;fill-opacity:1;stroke:url(#linearGradient6);stroke-opacity:1"
       inkscape:label="Nose (top ridge)" /></g><path
     style="fill:#ac8d38;fill-opacity:1;stroke:#000000;stroke-width:10.964;stroke-linejoin:round;stroke-opacity:1;stroke-dasharray:none"
     d="m 1572.75,62.25 c 2.7904,-0.827652 6.1781,0.705491 9,0 0.343,-0.08575 0.407,-0.664251 0.75,-0.75 0.7276,-0.181902 1.5224,0.181902 2.25,0 1.3061,-0.326524 2.4358,-1.207949 3.75,-1.5 2.1388,-0.475281 5.4553,0.817878 7.5,0 0.6566,-0.262613 0.8675,-1.183772 1.5,-1.5 0.4472,-0.223607 1.084,0.27735 1.5,0 0.4652,-0.310087 0.2197,-1.323223 0.75,-1.5 1.7943,-0.598109 4.7819,0.328007 6.75,0 1.6751,-0.27917 5.2737,-0.843854 6.75,-1.5 5.1582,-3.541198 3.4627,-0.616531 7.5,-3 2.1347,-1.28078 0.6783,-1.66958 3,-2.25 2.0749,-0.51872 2.2409,0.605428 4.5,-0.75 0.6064,-0.363803 0.8675,-1.183772 1.5,-1.5 1.1211,-0.560567 3.2868,-0.345606 4.5,-0.75 1.3829,-0.460977 2.3671,-1.789023 3.75,-2.25 1.35,-0.45 3.15,0.45 4.5,0 1.2576,-0.419206 2.4175,-2.555852 3.75,-3 1.0659,-0.355303 3.7172,0.03283 4.5,-0.75 0.6374,-0.637378 0.7789,-1.709168 1.5,-2.25 0.3724,-0.279257 4.0273,-0.466422 4.5,-0.75 0.6064,-0.363803 0.8675,-1.183772 1.5,-1.5 5.2173,-2.608664 1.129,0.09276 4.5,-0.75 1.4561,-0.364008 2.4058,-1.712307 3.75,-2.25 1.1103,-0.444125 4.8416,-1.113878 6,-1.5 3.3973,-1.132456 0.1047,-0.212829 2.25,-1.5 0.7554,-3.304746 3.0858,-0.792893 4.5,-1.5 0.6325,-0.316228 0.8861,-1.149177 1.5,-1.5 1.6177,-0.924387 7.1779,-3.345085 9,-3.75 0.9762,-0.216931 2.0136,0.164399 3,0 2.107,-0.351157 3.9148,-1.786637 6,-2.25 1.4643,-0.325396 3.0151,0.212132 4.5,0 3.2287,-0.461239 5.2705,-0.377555 8.25,-0.75 3.0685,-0.383556 5.9677,-1.643544 9,-2.25 1.9612,-0.392232 4.0099,0.199007 6,0 2.0513,-0.205133 3.9785,-1.095696 6,-1.5 1.06,-0.211995 2.8054,0.47232 3.75,0 0.6325,-0.316228 0.9116,-1.107768 1.5,-1.5 1.8224,-1.214958 6.8534,0.53665 9,0 0.343,-0.08575 0.407,-0.664251 0.75,-0.75 0.7276,-0.181902 1.5076,0.106066 2.25,0 2.5382,-0.362606 4.2995,-1.841586 6.75,-2.25 2.2331,-0.372174 4.5125,-0.405766 6.75,-0.75 9.4012,-1.446345 -3.6886,0.172152 6,-2.25 0.9701,-0.2425357 2.0078,0.124035 3,0 5.4339,-0.679236 10.4393,-3.6148779 15.75,-4.5 0.7398,-0.1232993 1.5146,0.1470871 2.25,0 2.0945,-0.4189043 3.9278,-1.7319437 6,-2.25 1.2127,-0.3031695 2.5243,0.2451452 3.75,0 0.5482,-0.1096322 0.9518,-0.6403678 1.5,-0.75 1.716,-0.3432032 3.5176,0.2474874 5.25,0 0.7826,-0.1118034 1.4655,-0.6519419 2.25,-0.75 1.9846,-0.2480695 4.0597,0.4850713 6,0 1.3061,-0.3265236 2.4439,-1.17347642 3.75,-1.5 3.2842,-0.82104615 7.1535,0.55775199 10.5,0 7.4007,-1.2334488 14.9868,-0.75 22.5,-0.75 h 36.75 30.75 c 4.5015,0 10.3639,-0.5795196 15,0 5.1275,0.64094518 20.2819,6.0159547 24.75,8.25 0.8062,0.403113 1.4215,1.144926 2.25,1.5 0.9474,0.4060425 2.078,0.289023 3,0.75 1.118,0.559017 1.8577,1.742327 3,2.25 1.1649,0.517727 2.5243,0.399798 3.75,0.75 1.938,0.553718 3.4754,2.044421 5.25,3 16.5402,8.906269 -2.5744,-1.383469 10.5,4.5 3.5684,1.605805 6.8936,3.731487 10.5,5.25 1.1749,0.494678 2.6432,0.117544 3.75,0.75 0.7826,0.447214 0.75,1.75 1.5,2.25 2.625,1.75 7.35,3.5 10.5,5.25 3.8241,2.124521 7.4434,4.63525 11.25,6.75 0.6911,0.383935 1.5636,0.357768 2.25,0.75 2.1706,1.240347 3.9199,3.113249 6,4.5 1.8605,1.240347 4.1039,1.814886 6,3 1.7989,1.124297 2.9036,3.103101 4.5,4.5 2.7925,2.443513 6.3744,3.37441 9,6 0.8839,0.883883 1.3009,2.186511 2.25,3 2.043,1.751135 5.2505,3.000322 7.5,4.5 1.7813,0.185648 1.274,2.219132 2.25,3 0.8731,0.69843 2.0698,0.879827 3,1.5 1.4709,0.980581 2.2791,2.769419 3.75,3.75 0.6578,0.438533 1.6327,0.256133 2.25,0.75 1.5247,1.219755 2.3693,3.119332 3.75,4.5 0.5,0.500002 0.9344,1.075732 1.5,1.5 0.4472,0.335408 1.2124,0.270645 1.5,0.75 0.5303,0.883882 0.2197,2.116118 0.75,3 0.2809,0.46809 3.6938,1.471897 3.75,1.5 1.1487,0.574342 0.5865,1.336515 1.5,2.25 0.3953,0.395287 1.1048,0.354713 1.5,0.75 1.9588,1.958798 3.523,4.591177 5.25,6.75 1.3244,1.655565 2.9426,2.50404 4.5,3.75 2.2086,1.7669 3.7914,4.2331 6,6 1.7975,1.43795 7.9642,5.75786 9.75,6.75 0.6911,0.38393 1.5721,0.34325 2.25,0.75 2.099,1.25936 3.802,3.24402 6,4.5 0.9707,0.5547 2,1 3,1.5 1.75,0.75 3.5857,1.32536 5.25,2.25 6.75,3.75 -1.5,0 2.25,2.25 0.9587,0.57522 2,1 3,1.5 0.7071,0.35355 3.0406,0.75 2.25,0.75 -5.8777,0 -11.7481,0.33399 -17.25,-1.5 -2.2919,-0.76398 -5.3071,-0.019 -7.5,-0.75 -0.3354,-0.1118 -0.4338,-0.59188 -0.75,-0.75 -0.1825,-0.0913 -3.0101,-0.50337 -3.75,-0.75 -2.7458,-0.91527 -23.9402,0 -28.5,0 -2.2812,0 -15.7577,-0.74612 -17.25,0 -0.5,0.25 -0.25,1.25 -0.75,1.5 -0.6708,0.33541 -1.5145,-0.14709 -2.25,0 -0.5482,0.10963 -0.9518,0.64037 -1.5,0.75 -2.1361,0.42721 -4.6441,0.22352 -6.75,0.75 -1.1411,0.28525 -2.6222,1.87409 -3.75,2.25 -1.1858,0.39529 -2.5373,-0.30317 -3.75,0 -1.0184,0.25458 -2.8342,1.63952 -3.75,2.25 -1.4824,0.98831 -1.8369,0.16845 -3,0.75 -0.6325,0.31623 -0.8675,1.18377 -1.5,1.5 -0.8687,0.43438 -2.1584,0.3292 -3,0.75 -0.792,0.39601 -1.5157,1.13284 -2.25,1.5 -1.3097,0.65484 -0.1079,1.78597 -1.5,2.25 -0.4744,0.15811 -1.0528,-0.22361 -1.5,0 -0.6325,0.31623 -0.9116,1.10776 -1.5,1.5 -0.208,0.13867 -0.5,0 -0.75,0 -0.5,0.25 -1.0528,0.41459 -1.5,0.75 -1.2855,0.96412 -1.3496,1.91992 -3,2.25 -0.8024,0.16047 -3.5837,-0.45813 -4.5,0 -1.4191,0.70957 -2.8712,1.59849 -4.5,2.25 -0.4642,0.18569 -1.0528,-0.22361 -1.5,0 -0.2236,0.1118 0.2081,0.61132 0,0.75 -0.68,0.45336 -7.7958,2.75916 -9,3 -0.7354,0.14709 -1.5289,-0.20604 -2.25,0 -2.5471,0.72773 -4.1829,2.57215 -6.75,3 -0.9864,0.1644 -2.0299,-0.24253 -3,0 -2.776,0.694 -5.5933,1.93735 -8.25,3 -2.0786,0.83146 -4.0961,2.04806 -6,3 -2.1,1.05 -4.65,1.2 -6.75,2.25 -1.498,0.74899 -2.6916,2.63833 -4.5,3 -0.7354,0.14709 -1.5224,-0.18191 -2.25,0 -1.7316,0.43291 -3.4493,2.39974 -5.25,3 -2.25,0.75 1.5,-1.5 -2.25,0 -2.36,0.94401 -4.1583,2.35208 -6.75,3 -0.75,0.1875 -1.5,-0.375 -2.25,0 -0.6325,0.31623 -0.8675,1.18377 -1.5,1.5 -0.6,0.3 -1.65,-0.3 -2.25,0 -2.4275,1.21377 -2.9305,0.98457 -5.25,1.5 -2.3153,0.51449 -4.4243,1.78487 -6.75,2.25 -1.7317,0.34634 -10.2408,0.57718 -10.5,0.75 -0.4651,0.31009 -0.3028,1.16459 -0.75,1.5 -2.026,1.51954 -5.2153,0.52085 -7.5,1.5 -1.3399,0.57423 -2.3671,1.78902 -3.75,2.25 -0.4744,0.15811 -1.0149,-0.12127 -1.5,0 -1.3226,0.33066 -2.6209,1.76608 -3.75,2.25 -0.9474,0.40604 -2.0348,0.38807 -3,0.75 -3.6064,1.35241 -6.119,3.69524 -9,6 -1.3096,1.04764 -3.1353,1.27523 -4.5,2.25 -2.1658,1.54705 -3.8708,3.65314 -6,5.25 -2.3918,1.79386 -5.1237,3.34895 -7.5,5.25 -1.1043,0.88345 -1.8686,2.15147 -3,3 -0.4472,0.33541 -1.1047,0.35471 -1.5,0.75 -0.1768,0.17678 0.1118,0.52639 0,0.75 -0.8875,1.77493 -3.3934,2.84019 -4.5,4.5 -0.1387,0.20801 0.1768,0.57322 0,0.75 -1.125,1.125 -2.625,1.875 -3.75,3 -0.1768,0.17678 0.1118,0.52639 0,0.75 -0.5023,1.00451 -1.7892,1.03922 -2.25,1.5 -0.1768,0.17678 0.1118,0.52639 0,0.75 -1.012,2.02405 -0.3361,-0.0259 -1.5,0.75 -1.4423,0.96154 -2.3077,2.78846 -3.75,3.75 -1.0016,0.66774 -2.9067,1.40668 -3.75,2.25 -0.3952,0.39529 -0.3547,1.10471 -0.75,1.5 -0.1768,0.17678 -0.5264,-0.1118 -0.75,0 -1.4941,0.74708 -2.9674,3.23912 -4.5,3.75 -2.0302,0.67675 -2.122,0.0793 -3.75,2.25 -0.6708,0.89443 -0.7843,2.1411 -1.5,3 -2.5,3 -2.5,2.25 -4.5,4.5 -2.127,2.39287 -3.7361,5.23615 -6,7.5 -0.3952,0.39529 -1.0528,0.41459 -1.5,0.75 -0.6376,0.47816 -6.8551,7.44383 -7.5,8.25 -0.3492,0.43652 -0.5,1 -0.75,1.5 -1,1.25 -1.9459,2.54529 -3,3.75 -3.7261,4.25839 -7.7599,8.38745 -11.25,12.75 -2.4081,3.01013 -5.7419,5.32391 -8.25,8.25 -2.035,2.3741 -3.8006,5.30062 -6,7.5 -1.3807,1.38067 -3.1193,2.36933 -4.5,3.75 -1.1319,1.13192 -1.8681,2.61808 -3,3.75 -2.5255,2.52554 -10.2858,7.35014 -12,9.75 -0.5991,0.83878 -0.1782,2.14235 -0.75,3 -1.5663,2.3494 -5.5891,3.33906 -7.5,5.25 -0.3535,0.35355 0.2236,1.05279 0,1.5 -0.9494,1.89893 -2.6032,4.08858 -3.75,6 -0.8236,1.37266 -2.2841,2.31822 -3,3.75 -0.4609,0.92195 -0.289,2.07805 -0.75,3 -0.3162,0.63245 -1.0473,0.95678 -1.5,1.5 -2.1919,2.63026 -3.9823,5.55977 -6,8.25 -1.4441,1.92545 -3.9721,4.64803 -6,6 -0.4651,0.31009 -1.1047,0.35471 -1.5,0.75 -0.1768,0.17678 0.2081,0.61132 0,0.75 -0.6578,0.43853 -1.5429,0.39645 -2.25,0.75 -1.1487,0.57434 -0.5865,1.33651 -1.5,2.25 -0.1768,0.17678 -0.55,-0.15 -0.75,0 -0.3901,0.29258 -3.845,3.09504 -4.5,3.75 -0.1768,0.17678 0.1768,0.57322 0,0.75 -0.9139,0.91389 -2.8361,1.33611 -3.75,2.25 -0.1768,0.17678 0.1768,0.57322 0,0.75 -1.5517,1.55178 0.061,-2.37132 -1.5,0.75 -0.1118,0.22361 0.1768,0.57322 0,0.75 -0.2107,1.92246 -1.6175,0.27566 -2.25,0.75 -0.8486,0.6364 -1.4014,1.6136 -2.25,2.25 -0.7765,0.58234 -2.8429,1.04642 -3.75,1.5 -2.1634,1.08172 -4.095,2.47998 -6,3.75 -0.8656,0.57706 -3.9744,0.22442 -4.5,0.75 -0.1768,0.17678 0.2236,0.6382 0,0.75 -0.4472,0.22361 -1.0256,-0.15812 -1.5,0 -0.6708,0.22361 -0.8675,1.18377 -1.5,1.5 -0.2236,0.1118 -0.5,0 -0.75,0 -0.5,0.25 -1.0348,0.43991 -1.5,0.75 -2.1237,1.4158 1.4214,0.48143 -3,2.25 -0.4642,0.18569 -1.0256,-0.15812 -1.5,0 -1.2931,0.43104 -4.6222,2.31112 -6,3 -0.6325,0.31623 -0.8292,1.27639 -1.5,1.5 -0.4744,0.15811 -1.0256,-0.15812 -1.5,0 -0.6708,0.22361 -0.8675,1.18377 -1.5,1.5 -0.2236,0.1118 -0.671,-0.23717 -0.75,0 -0.2372,0.71151 0.2372,1.53849 0,2.25 -0.079,0.23717 -0.5264,-0.1118 -0.75,0 -0.3162,0.15811 -0.4468,0.56809 -0.75,0.75 -1.25,0.75 -2.4461,1.59808 -3.75,2.25 -1.6028,0.8014 0.1415,0.67928 -1.5,1.5 -0.4472,0.22361 -1.1465,-0.35355 -1.5,0 -0.3952,0.39529 -0.3547,1.10471 -0.75,1.5 -0.1768,0.17677 -0.5179,-0.0928 -0.75,0 -1.0381,0.41523 -2.0413,0.92478 -3,1.5 -0.6064,0.3638 -0.8675,1.18377 -1.5,1.5 -2.9818,1.49089 -5.9435,3.21237 -9,5.25 -4.5533,3.03553 2.3483,-2.15901 -3.75,1.5 -0.911,0.5466 -1.6457,2.25 -3,2.25 -1.7242,0 -2.0061,-1.78033 -2.25,-3 -0.5769,-2.88461 0.5769,-6.11539 0,-9 -0.1097,-0.54816 -0.5732,-0.96967 -0.75,-1.5 -0.9079,-2.72393 0,-7.73321 0,-10.5 v -16.5 c 0,-2.64738 -0.4327,-5.65405 0,-8.25 0.6166,-3.69923 1.03,-7.4901 1.5,-11.25 0.2171,-1.73649 -0.2475,-3.51759 0,-5.25 0.7073,-4.95092 0.6295,-1.13845 2.25,-6 0.9435,-2.8306 0,-17.8898 0,-21.75 0,-1.06816 -0.3301,-2.75978 0,-3.75 0.1118,-0.33541 0.5,-0.5 0.75,-0.75 0,-0.75 -0.1819,-1.52239 0,-2.25 0.086,-0.343 0.6643,-0.407 0.75,-0.75 0.3032,-1.21268 -0.8839,-2.86612 0,-3.75 0.3953,-0.39529 1.19,-0.28487 1.5,-0.75 0.4082,-0.61231 0,-7.8563 0,-9 V 264 c 0,-3.41674 0.4225,-7.12023 0,-10.5 -0.4297,-3.43729 -0.8318,-7.15929 -1.5,-10.5 -0.1097,-0.54816 -0.6403,-0.95184 -0.75,-1.5 -0.577,-2.88527 -0.1009,-6.07919 -0.75,-9 -0.3948,-1.77669 -1.2008,-3.45473 -1.5,-5.25 -0.2055,-1.23299 0.2712,-2.52977 0,-3.75 -0.2426,-1.09141 -1.2288,-1.91535 -1.5,-3 -0.4851,-1.94029 0.3288,-4.02722 0,-6 -0.092,-0.55141 -0.6581,-0.94859 -0.75,-1.5 -0.1644,-0.98639 0.124,-2.00772 0,-3 -0.1279,-1.02282 -0.5,-2 -0.75,-3 -0.25,-1.25 -0.6092,-2.48304 -0.75,-3.75 -0.5215,-4.69342 -0.457,-9.55672 -1.5,-14.25 -1.0885,-4.89803 -3.8569,-9.85496 -4.5,-15 -0.124,-0.99228 0.2248,-2.02561 0,-3 -0.408,-1.7681 -2.6776,-10.2476 -3.75,-12.75 -0.355,-0.8285 -1.145,-1.4215 -1.5,-2.25 -0.8121,-1.89487 -0.4988,-4.19788 -1.5,-6 -0.7774,-1.39934 -2.1406,-2.39948 -3,-3.75 -4.3136,-6.77856 -7.7271,-14.16336 -12,-21 -1.0682,-1.7092 -1.882,-3.57295 -3,-5.25 -0.3923,-0.58835 -1.2374,-0.84346 -1.5,-1.5 -0.2785,-0.69636 0.2954,-1.56064 0,-2.25 -4.5456,-10.60636 -0.7769,-0.0447 -3,-3.75 -2.0129,-3.35483 -3.3353,-7.1493 -5.25,-10.5 -0.3508,-0.61394 -1.0473,-0.95678 -1.5,-1.5 -2.154,-2.584778 -4.6023,-6.204555 -6,-9 -0.5665,-1.13307 -2.6027,-1.807875 -3,-3 -0.1581,-0.474345 0.2236,-1.05279 0,-1.5 -0.9275,-1.85505 -3.3204,-2.275492 -4.5,-3.75 -0.4939,-0.617333 -0.2756,-1.617548 -0.75,-2.25 -0.3354,-0.44721 -1.1047,-0.354713 -1.5,-0.75 -0.8839,-0.883882 -1.6069,-1.928138 -2.25,-3 -0.1286,-0.214372 0.1768,-0.573225 0,-0.75 -0.3952,-0.395287 -1.0348,-0.439913 -1.5,-0.75 -1.147,-0.764656 -0.5892,-1.035599 -1.5,-2.25 -3.0559,-4.074471 -8.2683,-8.051415 -12,-11.25 z"
     id="path17"
     sodipodi:nodetypes="cssssssssssssssssssssssssscsssssssssssssssssssssssssssssscsssssssssssssssssssscssssssssssssssssscsssssssssssssssssssssssscssssssssssssssssssssssssssssssssssssssssssssssssssssssscsssssssssssssssssssssssssscsssssssscsssssssssssssssssssssssssssssssscsssssssscssssssscssssssssssscsssssssssssssc" /></svg>
