<?xml version="1.0" encoding="UTF-8" standalone="no"?>
<svg
   version="1.0"
   width="2094.000000pt"
   height="4334.000000pt"
   viewBox="0 0 2094.000000 4334.000000"
   preserveAspectRatio="xMidYMid meet"
   id="svg1"
   sodipodi:docname="Pince.R.svg"
   inkscape:version="1.4.2 (f4327f4, 2025-05-13)"
   xmlns:inkscape="http://www.inkscape.org/namespaces/inkscape"
   xmlns:sodipodi="http://sodipodi.sourceforge.net/DTD/sodipodi-0.dtd"
   xmlns="http://www.w3.org/2000/svg"
   xmlns:svg="http://www.w3.org/2000/svg">
  <defs
     id="defs1" />
  <sodipodi:namedview
     id="namedview1"
     pagecolor="#ffffff"
     bordercolor="#000000"
     borderopacity="0.25"
     inkscape:showpageshadow="2"
     inkscape:pageopacity="0.0"
     inkscape:pagecheckerboard="0"
     inkscape:deskcolor="#d1d1d1"
     inkscape:document-units="pt"
     inkscape:zoom="3.0268216"
     inkscape:cx="1475.9707"
     inkscape:cy="4638.3638"
     inkscape:window-width="1920"
     inkscape:window-height="991"
     inkscape:window-x="-9"
     inkscape:window-y="-9"
     inkscape:window-maximized="1"
     inkscape:current-layer="svg1" />
  <path
     style="fill:#cbcdcd;stroke:#c2c9ca;stroke-width:0;stroke-linejoin:round;paint-order:stroke fill markers"
     d="m 1043.9901,3731.6272 h 383.6228 v 507.7593 l 40.4736,69.208 67.1055,19.4483 h 77.4429 l 65.1782,-30.837 31.5378,-64.1269 v -690.3283 l -34.8221,-64.845 -60.955,-28.2475 h -569.564"
     id="path3"
     inkscape:label="Color" />
  <g
     transform="matrix(0.1,0,0,-0.1,0,4334)"
     fill="#000000"
     stroke="none"
     id="g1">
    <path
       d="M10440 8835 l0 -55 2788 0 c1860 0 2816 -3 2872 -10 448 -55 789 -359 902 -805 l23 -90 0 -3430 0 -3430 -26 -96 c-60 -215 -139 -351 -288 -499 -147 -144 -312 -234 -511 -277 -75 -16 -136 -18 -540 -18 l-455 1 -97 26 c-329 90 -586 316 -712 628 -76 189 -70 -58 -76 2742 -5 2390 -6 2508 -23 2525 -17 17 -110 18 -1937 21 l-1920 2 0 -60 0 -60 1880 2 1880 3 0 -2385 c0 -2524 0 -2502 45 -2681 88 -348 334 -642 653 -779 200 -86 293 -101 686 -107 513 -8 685 16 921 133 330 163 564 489 621 864 21 145 21 6758 -1 6903 -64 426 -372 794 -775 925 -185 61 72 56 -3057 59 l-2853 3 0 -55z"
       id="path1" />
  </g>
</svg>
