<?xml version="1.0" encoding="UTF-8" standalone="no"?>
<svg
   version="1.0"
   width="2094.000000pt"
   height="4334.000000pt"
   viewBox="0 0 2094.000000 4334.000000"
   preserveAspectRatio="xMidYMid meet"
   id="svg4"
   sodipodi:docname="Robot_Eye-Blue.svg"
   inkscape:version="1.4.2 (f4327f4, 2025-05-13)"
   xmlns:inkscape="http://www.inkscape.org/namespaces/inkscape"
   xmlns:sodipodi="http://sodipodi.sourceforge.net/DTD/sodipodi-0.dtd"
   xmlns="http://www.w3.org/2000/svg"
   xmlns:svg="http://www.w3.org/2000/svg">
  <defs
     id="defs4" />
  <sodipodi:namedview
     id="namedview4"
     pagecolor="#ffffff"
     bordercolor="#000000"
     borderopacity="0.25"
     inkscape:showpageshadow="2"
     inkscape:pageopacity="0.0"
     inkscape:pagecheckerboard="0"
     inkscape:deskcolor="#d1d1d1"
     inkscape:document-units="pt"
     inkscape:zoom="0.1767767"
     inkscape:cx="642.05294"
     inkscape:cy="3210.2647"
     inkscape:window-width="1920"
     inkscape:window-height="991"
     inkscape:window-x="-9"
     inkscape:window-y="-9"
     inkscape:window-maximized="1"
     inkscape:current-layer="svg4"
     showgrid="false" />
  <path
     d="m 9937.469,22416.19 c -1422.0287,-197.205 -2590.076,-1160.985 -3045.0139,-2512.222 -131.1786,-393.016 -185.6039,-740.199 -185.6039,-1180.428 1.3956,-434.679 57.2161,-777.69 188.3948,-1165.152 76.753,-223.582 90.7083,-256.916 185.6035,-454.112 341.9013,-704.091 944.764,-1313.747 1650.8972,-1670.651 554.015,-279.133 1087.1027,-405.512 1706.7133,-405.512 494.008,0 907.083,77.772 1369,256.915 380.972,148.597 764.737,379.124 1056.407,634.656 51.632,45.825 110.244,95.819 129.778,112.482 80.939,68.049 326.551,345.794 432.612,488.838 487.033,655.48 732.646,1397.071 732.646,2215.038 0,736.027 -207.933,1434.562 -607.049,2034.496 -604.256,912.398 -1529.486,1492.889 -2620.775,1644.266 -267.94,37.493 -724.279,37.493 -993.61,1.386 z"
     id="path8"
     inkscape:label="Sclera (color)"
     style="display:none;fill:#dcdde1;fill-opacity:1;stroke:none;stroke-width:157.31;stroke-dasharray:none;stroke-opacity:1;paint-order:normal"
     transform="matrix(0.1,0,0,-0.1,0,4334)" />
  <path
     d="m 10085,21390 c -1019,-142 -1856,-836 -2182,-1809 -94,-283 -133,-533 -133,-850 1,-313 41,-560 135,-839 55,-161 65,-185 133,-327 245,-507 677,-946 1183,-1203 397,-201 779,-292 1223,-292 354,0 650,56 981,185 273,107 548,273 757,457 37,33 79,69 93,81 58,49 234,249 310,352 349,472 525,1006 525,1595 0,530 -149,1033 -435,1465 -433,657 -1096,1075 -1878,1184 -192,27 -519,27 -712,1 z"
     id="path3"
     inkscape:label="Eye (coloured (red))"
     style="display:inline;fill:#0000ff;fill-opacity:1;stroke:#000000;stroke-width:113;stroke-dasharray:none;stroke-opacity:1;paint-order:normal"
     transform="matrix(0.1,0,0,-0.1,0,4334)" />
  <path
     id="path11"
     style="display:none;fill:#a1a4a4;fill-opacity:1;stroke:none;stroke-width:11.3;stroke-linejoin:round;stroke-dasharray:none;stroke-opacity:1;paint-order:normal"
     inkscape:label="Barre (couleur)"
     d="M 979.3374,270.99902 V 1900.6875 h 126.7485 V 270.99902 Z M 1106.0859,2826.75 H 979.3374 v 626.7598 h 126.7485 z" />
  <path
     style="display:none;fill:#ebcc9f;fill-opacity:1;stroke:none;stroke-width:11.3;stroke-linejoin:round;stroke-dasharray:none;stroke-opacity:1;paint-order:normal"
     d="M 2056.8852,1546.7077 1752,1593.75 1328.2117,1596.8239 926.25,1548.75 578.25,1473 332.25,1392 97.5,1279.5 14.849242,1216.0469 5.3033008,1174.6811 44.017397,1117.9358 106.5,1072.5 211.5,1008.75 363,945 507,898.5 697.5,849 898.37918,809.81407 707.625,766.875 501,696 375.75,627 355.5,599.25 l 1.5,-37.5 29.25,-31.5 108,-54 L 824.13293,366.45808 969.97372,341.00225 700.56604,272.05934 601.5,221.625 l -11.25,-39.75 59.93468,-54.59578 225.3903,-94.929085 147.96212,-28.1074944 16.4402,68.9429104 40.3051,86.974139 71.0642,83.26182 107.657,68.41258 206.2984,48.26003 -57.8059,13.25826 L 1221,381.75 1110.246,397.4824 1109.7157,363.80644 979.25452,343.12357 V 522.375 L 1016.1124,576.4688 1165.5,685.5 1390.5255,787.5402 1566.0647,830.4969 1732.058,854.89207 1480.5,878.25 h -175.125 l -143.6869,16.68203 -52.2375,17.23574 V 846.93712 L 980.04997,826.2543 v 261.1875 l 57.27573,95.7246 143.7194,122.5063 215.4549,102.0773 264,83.25 244.976,42.1843 z"
     id="path7"
     inkscape:label="Hélice (couleur)" />
  <rect
     style="display:none;fill:#cbcdcd;fill-opacity:1;stroke:none;stroke-width:113;stroke-linejoin:round;stroke-dasharray:none;stroke-opacity:1;paint-order:normal"
     id="rect5"
     width="7379.665"
     height="2782.5137"
     x="6750.0381"
     y="-8850.2627"
     transform="matrix(0.1,0,0,0.1,0,4334)"
     inkscape:label="Pince (couleur)" />
  <g
     transform="matrix(0.1,0,0,-0.1,0,4334)"
     fill="#000000"
     stroke="none"
     id="g4"
     style="display:none">
    <path
       d="m 9822.5885,23348.899 c -1772.2321,-246.965 -3227.9319,-1453.962 -3794.907,-3146.19 -163.4837,-492.191 -231.312,-926.987 -231.312,-1478.31 1.7392,-544.365 71.3067,-973.945 234.7903,-1459.178 95.6553,-280.009 113.0471,-321.75 231.312,-568.715 426.1009,-881.767 1177.4298,-1645.27 2057.4587,-2092.242 690.4574,-349.576 1354.827,-507.843 2127.0265,-507.843 615.672,0 1130.471,97.395 1706.143,321.749 474.798,186.094 953.074,474.799 1316.564,794.81 64.35,57.392 137.396,120.004 161.746,140.874 100.872,85.22 406.969,433.058 539.148,612.193 606.976,820.897 913.073,1749.623 913.073,2774.005 0,921.769 -259.14,1796.581 -756.546,2547.909 -753.07,1142.647 -1906.15,1869.627 -3266.195,2059.198 -333.924,46.959 -902.638,46.959 -1238.3015,1.74 z"
       id="path9"
       inkscape:label="Body (color)"
       style="fill:#ff0000;fill-opacity:0;stroke:#cbcdcd;stroke-width:1778.64;stroke-dasharray:none;stroke-opacity:1;paint-order:normal" />
    <path
       d="m 10095,22499 c -754,-72 -1460,-363 -2055,-847 -139,-114 -404,-379 -518,-520 -453,-559 -730,-1202 -828,-1922 -26,-191 -31,-631 -9,-840 131,-1292 898,-2411 2052,-2996 429,-217 890,-349 1378,-394 167,-15 533,-12 707,6 633,65 1253,293 1762,648 273,190 603,496 789,730 471,593 746,1260 821,1994 18,176 21,540 5,712 -44,484 -178,952 -394,1375 -195,382 -395,656 -704,966 -180,179 -311,290 -500,423 -520,365 -1137,594 -1779,660 -165,17 -568,20 -727,5 z m 793,-123 c 1011,-134 1880,-639 2483,-1441 340,-453 570,-982 673,-1545 43,-239 51,-339 51,-650 0,-311 -8,-411 -51,-650 -276,-1512 -1442,-2678 -2954,-2954 -239,-43 -339,-51 -650,-51 -311,0 -411,8 -650,51 -630,115 -1213,389 -1710,803 -113,94 -317,297 -421,418 -475,553 -769,1229 -861,1978 -20,167 -17,684 5,850 93,697 352,1307 790,1858 97,123 348,380 472,485 564,475 1274,782 1970,851 61,6 124,13 140,15 77,11 597,-3 713,-18 z"
       id="path2"
       inkscape:label="Eye socket" />
    <path
       d="m 6752,6013 3,-58 h 3685 3685 l 3,58 3,57 H 10440 6749 Z"
       id="path4"
       inkscape:label="bottom part" />
    <path
       d="m 10130,43334 c -267,-23 -705,-111 -1070,-214 -767,-217 -1448,-484 -2292,-899 -523,-257 -816,-482 -897,-689 -76,-193 71,-450 350,-607 249,-142 768,-330 1479,-537 74,-22 180,-53 235,-69 96,-28 682,-175 870,-218 224,-51 594,-131 633,-137 23,-4 45,-11 48,-15 3,-5 1,-9 -4,-9 -4,0 -60,-7 -122,-15 -241,-32 -553,-93 -1005,-196 -348,-80 -900,-238 -1365,-391 -272,-90 -792,-268 -1030,-354 -85,-31 -234,-85 -330,-119 -697,-251 -1083,-412 -1395,-583 -49,-27 -137,-75 -195,-107 -167,-91 -266,-161 -359,-255 -100,-102 -142,-167 -183,-287 -27,-77 -30,-96 -25,-159 12,-138 72,-252 201,-380 141,-140 404,-298 941,-567 610,-305 1309,-559 2375,-865 58,-17 146,-42 195,-57 293,-85 1176,-295 1458,-346 37,-7 64,-16 60,-19 -5,-4 -57,-15 -118,-25 -242,-38 -912,-169 -1230,-241 -630,-142 -1791,-432 -2165,-539 -309,-89 -360,-105 -485,-145 -66,-21 -248,-80 -405,-131 -624,-201 -1202,-425 -1770,-687 -284,-131 -736,-353 -820,-404 -41,-24 -129,-76 -195,-113 -358,-205 -833,-535 -1035,-719 -259,-235 -414,-449 -455,-626 -38,-167 -18,-273 78,-418 131,-196 365,-380 882,-692 607,-366 1705,-875 2619,-1215 677,-251 1284,-451 2061,-679 291,-85 866,-235 1140,-297 237,-54 846,-179 1120,-230 149,-27 317,-60 375,-74 137,-31 624,-127 815,-160 83,-14 238,-42 345,-61 107,-19 210,-37 228,-40 l 32,-5 v -1704 -1704 l -32,-5 c -18,-3 -91,-15 -163,-27 -888,-142 -1747,-511 -2480,-1063 -216,-163 -357,-287 -586,-515 -235,-236 -362,-381 -536,-614 -1140,-1527 -1430,-3539 -766,-5325 649,-1750 2116,-3060 3928,-3511 170,-42 368,-82 500,-101 44,-6 92,-13 108,-16 l 27,-6 V 11019 8890 H 8235 6750 v -55 -55 h 3690 3690 v 55 55 h -1485 -1485 v 2130 2129 l 33,5 c 271,44 365,61 492,90 1412,320 2652,1175 3450,2381 657,991 982,2152 934,3336 -37,928 -298,1825 -760,2614 -801,1368 -2116,2327 -3662,2670 -100,22 -198,39 -454,81 l -33,5 v 1605 1606 l 28,-6 c 15,-3 59,-8 97,-11 39,-4 133,-15 210,-25 270,-37 847,-91 1165,-110 85,-5 227,-16 315,-25 542,-51 1458,-80 2530,-80 742,0 850,3 1305,35 74,6 254,17 400,25 440,25 654,43 1125,96 426,47 1131,141 1460,194 394,63 990,199 1092,248 61,30 54,51 -17,54 -30,1 -192,7 -360,13 -168,6 -370,16 -450,21 -80,5 -248,16 -375,24 -126,9 -329,24 -450,36 -452,41 -1433,195 -1785,280 -177,43 -488,114 -670,154 -526,116 -1351,352 -2097,600 -719,240 -1334,499 -2019,850 -307,157 -433,225 -569,307 -143,85 -637,424 -798,548 l -137,105 2,1658 3,1659 100,29 c 557,162 1030,234 1795,273 162,9 385,21 495,28 135,9 413,12 860,10 859,-4 1297,13 1995,78 441,40 1150,145 1298,191 17,6 32,16 32,24 0,23 -52,33 -198,40 -78,3 -179,10 -225,16 -45,5 -165,16 -267,24 -166,13 -303,29 -695,81 -170,22 -542,80 -671,103 -521,95 -529,96 -819,168 -264,64 -777,220 -1045,317 -266,95 -473,176 -850,331 -384,158 -1421,705 -1737,917 l -73,49 v 1224 c 0,1157 1,1224 18,1228 186,52 851,140 1217,162 55,3 188,12 295,20 107,8 314,17 460,20 334,7 863,40 1155,71 200,21 549,80 652,110 111,32 213,78 213,98 0,16 -54,21 -319,31 -85,3 -205,12 -265,19 -61,8 -138,17 -171,21 -77,8 -331,47 -560,86 -609,103 -1003,228 -1500,477 -307,153 -404,215 -645,407 -381,305 -526,448 -748,741 -67,89 -239,369 -296,481 -167,332 -298,757 -361,1171 -13,83 -55,106 -175,96 z m 98,-228 c 60,-364 178,-732 331,-1033 236,-463 468,-774 791,-1057 343,-300 609,-493 890,-646 273,-148 647,-297 960,-383 272,-75 811,-174 1240,-228 148,-19 143,-23 -57,-49 -77,-10 -320,-30 -693,-56 -325,-23 -877,-23 -1149,0 -112,9 -292,21 -400,26 -625,29 -1346,110 -1875,211 -144,28 -367,73 -496,100 -129,28 -320,68 -425,89 -229,47 -353,75 -765,175 -410,99 -549,137 -886,241 -153,47 -331,101 -394,120 -447,135 -902,314 -1084,428 -116,72 -211,183 -241,281 -19,65 -19,120 2,181 23,68 182,226 324,322 255,172 728,418 1143,596 673,290 830,346 1611,583 384,116 853,212 1136,232 12,1 20,-26 37,-133 z m -243,-3266 c 182,-38 714,-129 915,-156 69,-9 128,-20 133,-24 4,-3 6,-612 5,-1353 l -3,-1346 -40,27 c -323,221 -780,609 -918,780 -127,158 -165,214 -204,303 l -28,64 -3,868 -3,868 23,-6 c 13,-2 68,-14 123,-25 z m -263,-812 c 3,-822 4,-834 25,-911 46,-162 153,-323 352,-529 260,-270 768,-664 1196,-925 209,-128 1000,-544 1380,-727 505,-242 1261,-531 1780,-680 381,-109 1150,-273 1505,-321 63,-9 167,-24 230,-35 63,-10 156,-23 205,-29 50,-6 178,-22 285,-36 107,-14 234,-28 283,-31 48,-4 86,-8 85,-10 -2,-1 -97,-14 -213,-28 -912,-113 -1640,-144 -2705,-116 -329,9 -823,34 -1160,60 -69,5 -181,12 -250,15 -141,7 -467,37 -640,60 -63,8 -205,26 -315,39 -110,14 -227,30 -260,36 -33,5 -190,32 -350,60 -159,27 -382,63 -495,80 -113,16 -270,41 -350,55 -80,15 -235,42 -345,60 -633,108 -800,137 -890,156 -55,11 -192,38 -305,59 -570,108 -1311,286 -1855,446 -174,51 -540,168 -940,299 -431,142 -988,378 -1500,635 -648,327 -848,485 -896,711 -34,156 38,308 229,483 108,99 174,140 537,333 301,160 695,319 1434,578 163,57 352,124 421,150 164,62 797,272 1125,374 627,194 1339,369 1855,456 229,38 415,62 492,64 l 47,1 z m 1603,602 c 55,-6 246,-21 424,-35 179,-14 326,-27 328,-29 2,-1 -63,-11 -144,-20 -256,-30 -536,-66 -542,-71 -8,-4 -208,-45 -222,-45 -5,0 -9,50 -9,110 v 111 l 33,-5 c 17,-3 77,-10 132,-16 z M 9270,35135 c 107,-19 252,-45 322,-57 l 127,-23 3,-1205 c 3,-1204 3,-1205 25,-1282 101,-358 248,-628 540,-993 204,-256 409,-455 758,-741 500,-409 831,-631 1345,-904 416,-221 663,-338 1065,-505 451,-187 555,-228 772,-306 126,-44 282,-100 348,-124 101,-36 572,-187 845,-270 646,-197 1479,-406 2195,-550 473,-95 442,-90 1105,-185 203,-29 415,-55 534,-65 333,-29 674,-56 776,-62 69,-3 136,-9 149,-13 30,-8 -344,-78 -639,-120 -247,-35 -1256,-164 -1405,-180 -328,-34 -636,-61 -815,-70 -113,-6 -326,-20 -475,-30 -503,-36 -754,-42 -1515,-38 -1046,6 -1500,23 -2625,94 -479,30 -744,53 -1085,94 -140,17 -343,40 -450,50 -107,11 -247,27 -310,36 -63,8 -200,26 -303,39 -237,32 -601,85 -872,129 -115,19 -298,49 -405,66 -107,17 -260,44 -340,60 -80,16 -266,52 -415,80 -595,113 -801,153 -1055,207 -146,31 -357,75 -470,99 -297,62 -321,68 -548,128 -114,30 -268,71 -342,90 -74,20 -227,63 -340,96 -113,33 -367,107 -565,165 -404,117 -1072,338 -1330,440 -93,37 -217,84 -275,105 -493,178 -1278,523 -1920,844 -548,274 -1144,647 -1359,850 -70,67 -150,172 -182,241 -34,71 -40,150 -19,253 39,192 274,475 600,723 512,390 1048,706 1675,989 88,40 200,92 248,116 149,76 770,337 1017,429 365,136 1282,436 1605,525 319,88 1235,317 1580,396 110,25 259,59 330,75 164,38 689,148 945,199 373,74 734,128 925,138 17,1 118,-14 225,-33 z m 882,-154 c 301,-55 367,-66 668,-111 112,-17 208,-34 212,-38 5,-5 7,-873 6,-1930 l -3,-1922 -150,131 c -193,168 -271,244 -412,404 -323,364 -541,743 -618,1075 -13,56 -15,229 -15,1253 0,1161 0,1187 19,1187 11,0 142,-22 293,-49 z m 1044,-171 c 29,-10 603,-92 904,-129 249,-31 331,-38 627,-57 150,-10 271,-19 270,-20 -2,-2 -84,-8 -182,-14 -230,-13 -340,-25 -600,-61 -377,-53 -681,-107 -759,-136 -22,-8 -98,-32 -168,-52 l -128,-38 v 259 c 0,142 2,258 4,258 1,0 16,-4 32,-10 z m -1016,-7140 c 157,-23 335,-50 395,-60 61,-10 180,-26 265,-35 85,-9 165,-18 178,-21 l 22,-4 v -1602 -1601 l -62,6 c -35,4 -170,12 -300,19 -227,11 -543,4 -775,-19 l -63,-6 v 1687 1688 l 28,-6 c 15,-3 155,-24 312,-46 z m 875,-3439 c 690,-84 1274,-259 1875,-561 774,-390 1406,-921 1935,-1625 214,-284 379,-557 546,-899 234,-482 390,-973 478,-1506 60,-361 66,-446 65,-905 0,-374 -2,-440 -22,-605 -85,-691 -253,-1258 -548,-1850 -117,-234 -228,-427 -354,-615 -838,-1253 -2167,-2115 -3650,-2369 -352,-60 -482,-70 -935,-70 -440,-1 -524,5 -847,54 -1528,236 -2900,1111 -3755,2395 -428,644 -717,1370 -848,2130 -59,345 -69,478 -69,930 -1,459 5,545 65,905 89,536 243,1023 478,1506 398,818 956,1491 1686,2035 609,454 1361,795 2100,954 264,57 514,93 815,119 25,2 216,2 425,1 317,-2 410,-6 560,-24 z m -853,-11123 c 224,-11 549,-3 781,19 l 57,5 V 11016 8900 h -600 -600 v 2116 2117 l 63,-6 c 34,-4 169,-12 299,-19 z"
       id="path1"
       inkscape:label="Body" />
  </g>
</svg>
