<?xml version="1.0" standalone="no"?>
<!DOCTYPE svg PUBLIC "-//W3C//DTD SVG 20010904//EN"
 "http://www.w3.org/TR/2001/REC-SVG-20010904/DTD/svg10.dtd">
<svg version="1.0" xmlns="http://www.w3.org/2000/svg"
 width="768.000000pt" height="3930.000000pt" viewBox="0 0 768.000000 3930.000000"
 preserveAspectRatio="xMidYMid meet">

<g transform="translate(0.000000,3930.000000) scale(0.100000,-0.100000)"
fill="#000000" stroke="none">
<path d="M22 23518 c-9 -9 -12 -2633 -12 -11744 l0 -11733 26 -20 27 -21 3784
0 3784 0 24 25 25 24 0 11714 0 11714 -21 27 -20 26 -3803 0 c-2944 0 -3805
-3 -3814 -12z m7548 -11748 l0 -11660 -3725 0 -3725 0 0 11660 0 11660 3725 0
3725 0 0 -11660z"/>
<path d="M362 22458 c-9 -9 -12 -392 -12 -1664 0 -909 3 -1659 6 -1668 6 -15
322 -16 3484 -16 3162 0 3478 1 3484 16 3 9 6 759 6 1668 0 1272 -3 1655 -12
1664 -17 17 -6939 17 -6956 0z m6908 -1668 l0 -1620 -3430 0 -3430 0 0 1620 0
1620 3430 0 3430 0 0 -1620z"/>
<path d="M362 18288 c-9 -9 -12 -392 -12 -1664 0 -909 3 -1659 6 -1668 6 -15
322 -16 3484 -16 3162 0 3478 1 3484 16 3 9 6 759 6 1668 0 1272 -3 1655 -12
1664 -17 17 -6939 17 -6956 0z m6908 -1668 l0 -1620 -3430 0 -3430 0 0 1620 0
1620 3430 0 3430 0 0 -1620z"/>
<path d="M362 14118 c-9 -9 -12 -392 -12 -1664 0 -909 3 -1659 6 -1668 6 -15
322 -16 3484 -16 3162 0 3478 1 3484 16 3 9 6 759 6 1668 0 1272 -3 1655 -12
1664 -17 17 -6939 17 -6956 0z m6908 -1668 l0 -1620 -3430 0 -3430 0 0 1620 0
1620 3430 0 3430 0 0 -1620z"/>
<path d="M362 9948 c-9 -9 -12 -392 -12 -1664 0 -909 3 -1659 6 -1668 6 -15
322 -16 3484 -16 3162 0 3478 1 3484 16 3 9 6 759 6 1668 0 1272 -3 1655 -12
1664 -17 17 -6939 17 -6956 0z m6908 -1668 l0 -1620 -3430 0 -3430 0 0 1620 0
1620 3430 0 3430 0 0 -1620z"/>
<path d="M362 5778 c-9 -9 -12 -392 -12 -1664 0 -909 3 -1659 6 -1668 6 -15
322 -16 3484 -16 3162 0 3478 1 3484 16 3 9 6 759 6 1668 0 1272 -3 1655 -12
1664 -17 17 -6939 17 -6956 0z m6908 -1668 l0 -1620 -3430 0 -3430 0 0 1620 0
1620 3430 0 3430 0 0 -1620z"/>
</g>
</svg>
