<?xml version="1.0" encoding="UTF-8" standalone="no"?>
<svg
   version="1.0"
   width="7944.000000pt"
   height="4356.000000pt"
   viewBox="0 0 7944.000000 4356.000000"
   preserveAspectRatio="xMidYMid meet"
   id="svg1"
   sodipodi:docname="Book-shelf-_top-end.svg"
   inkscape:version="1.4.2 (f4327f4, 2025-05-13)"
   xmlns:inkscape="http://www.inkscape.org/namespaces/inkscape"
   xmlns:sodipodi="http://sodipodi.sourceforge.net/DTD/sodipodi-0.dtd"
   xmlns="http://www.w3.org/2000/svg"
   xmlns:svg="http://www.w3.org/2000/svg">
  <defs
     id="defs1" />
  <sodipodi:namedview
     id="namedview1"
     pagecolor="#ffffff"
     bordercolor="#000000"
     borderopacity="0.25"
     inkscape:showpageshadow="2"
     inkscape:pageopacity="0.0"
     inkscape:pagecheckerboard="0"
     inkscape:deskcolor="#d1d1d1"
     inkscape:document-units="pt"
     inkscape:zoom="0.0625"
     inkscape:cx="3312"
     inkscape:cy="983.99999"
     inkscape:window-width="1920"
     inkscape:window-height="991"
     inkscape:window-x="-9"
     inkscape:window-y="-9"
     inkscape:window-maximized="1"
     inkscape:current-layer="svg1" />
  <g
     id="g2"
     inkscape:label="Colors"
     transform="matrix(1.0000042,0,0,-1,-2.4339356,4362.0971)">
    <rect
       style="fill:#c99b64;fill-opacity:1;stroke-width:12.1774;stroke-linejoin:round"
       id="rect1"
       width="7933.2798"
       height="2243.8796"
       x="7.6320558"
       y="2112.1011"
       inkscape:label="Sides (color)" />
    <rect
       style="fill:#9e5e27;fill-opacity:1;stroke-width:11.6191;stroke-linejoin:round"
       id="rect3"
       width="7670.9507"
       height="2112.6816"
       x="138.88823"
       y="2112.0945"
       inkscape:label="Inner sides (color)" />
    <rect
       style="fill:#864018;fill-opacity:1;stroke-width:11.5077;stroke-linejoin:round"
       id="rect2"
       width="7557.7456"
       height="2112.104"
       x="196.95938"
       y="2112.1021"
       inkscape:label="Fond (color)" />
  </g>
  <g
     transform="translate(0.000000,4356.000000) scale(0.100000,-0.100000)"
     fill="#000000"
     stroke="none"
     id="g1">
    <path
       d="M22 43538 c-9 -9 -12 -2522 -12 -11245 l0 -11233 55 0 55 0 0 11195 0 11195 603 -2 602 -3 2 -630 c2 -346 3 -5383 3 -11192 l0 -10563 55 0 55 0 0 10535 0 10535 213 -2 212 -3 3 -10532 2 -10533 55 0 55 0 0 10535 0 10535 37743 -2 37742 -3 3 -10532 2 -10533 55 0 55 0 0 10535 0 10535 215 0 215 0 0 -10535 0 -10535 55 0 55 0 0 11195 0 11195 605 0 605 0 0 -11195 0 -11195 55 0 55 0 0 11219 0 11218 -21 27 -20 26 -39683 0 c-30850 0 -39685 -3 -39694 -12z m77983 -698 l0 -605 -38282 -3 -38283 -2 0 610 0 610 38283 -2 38282 -3 0 -605z"
       id="path1" />
  </g>
</svg>
