<?xml version="1.0" encoding="UTF-8" standalone="no"?>
<svg
   version="1.0"
   width="7944.000000pt"
   height="4356.000000pt"
   viewBox="0 0 7944.000000 4356.000000"
   preserveAspectRatio="xMidYMid meet"
   id="svg1"
   sodipodi:docname="Book-shelf-_bottom-end_.svg"
   inkscape:version="1.4.2 (f4327f4, 2025-05-13)"
   xmlns:inkscape="http://www.inkscape.org/namespaces/inkscape"
   xmlns:sodipodi="http://sodipodi.sourceforge.net/DTD/sodipodi-0.dtd"
   xmlns="http://www.w3.org/2000/svg"
   xmlns:svg="http://www.w3.org/2000/svg">
  <defs
     id="defs1" />
  <sodipodi:namedview
     id="namedview1"
     pagecolor="#ffffff"
     bordercolor="#000000"
     borderopacity="0.25"
     inkscape:showpageshadow="2"
     inkscape:pageopacity="0.0"
     inkscape:pagecheckerboard="0"
     inkscape:deskcolor="#d1d1d1"
     inkscape:document-units="pt"
     showgrid="false"
     inkscape:zoom="0.044194174"
     inkscape:cx="6946.617"
     inkscape:cy="-1187.9394"
     inkscape:window-width="1920"
     inkscape:window-height="991"
     inkscape:window-x="-9"
     inkscape:window-y="-9"
     inkscape:window-maximized="1"
     inkscape:current-layer="svg1" />
  <g
     id="g2"
     inkscape:label="Colors">
    <rect
       style="fill:#c99b64;fill-opacity:1;stroke-width:11.779;stroke-linejoin:round"
       id="rect1"
       width="7931.4189"
       height="2099.9346"
       x="8.0132303"
       y="2249.9971"
       inkscape:label="Sides (color)" />
    <rect
       style="fill:#9e5e27;fill-opacity:1;stroke-width:11.2071;stroke-linejoin:round"
       id="rect3"
       width="7665.8403"
       height="1966.8096"
       x="138.88823"
       y="2249.9971"
       inkscape:label="Inner sides (color)" />
    <rect
       style="fill:#864018;stroke-width:10.964;stroke-linejoin:round;fill-opacity:1"
       id="rect2"
       width="7557.9692"
       height="1917.1782"
       x="196.95938"
       y="2249.9971"
       inkscape:label="Fond (color)" />
  </g>
  <g
     transform="translate(0.000000,4356.000000) scale(0.100000,-0.100000)"
     fill="#000000"
     stroke="none"
     id="g1"
     inkscape:label="Shelf">
    <path
       d="M10 10551 l0 -10510 26 -20 27 -21 39664 0 39664 0 24 25 25 24 0 10506 0 10505 -55 0 -55 0 0 -10475 0 -10475 -605 0 -605 0 0 10475 0 10475 -55 0 -55 0 0 -9780 c0 -5379 -3 -9780 -8 -9780 -4 0 -101 93 -215 208 l-207 207 0 9573 0 9572 -55 0 -55 0 0 -9545 0 -9545 -37745 0 -37745 0 0 9545 0 9545 -55 0 -55 0 0 -9563 0 -9562 -215 -215 -215 -215 0 9778 0 9777 -55 0 -55 0 -2 -10472 -3 -10473 -602 -3 -603 -2 0 10475 0 10475 -55 0 -55 0 0 -10509z m77723 -8899 c114 -114 207 -211 207 -215 0 -4 -17199 -7 -38220 -7 -21021 0 -38220 3 -38220 7 0 4 93 101 207 215 l208 208 37805 0 37805 0 208 -208z m275 -934 l-3 -603 -38282 -3 -38283 -2 0 605 0 605 38285 0 38285 0 -2 -602z"
       id="path1" />
  </g>
</svg>
