<?xml version="1.0" encoding="UTF-8" standalone="no"?>
<svg
   version="1.0"
   width="7944.000000pt"
   height="4356.000000pt"
   viewBox="0 0 7944.000000 4356.000000"
   preserveAspectRatio="xMidYMid meet"
   id="svg6"
   sodipodi:docname="Book-shelf-_middle-top.svg"
   inkscape:version="1.4.2 (f4327f4, 2025-05-13)"
   xmlns:inkscape="http://www.inkscape.org/namespaces/inkscape"
   xmlns:sodipodi="http://sodipodi.sourceforge.net/DTD/sodipodi-0.dtd"
   xmlns="http://www.w3.org/2000/svg"
   xmlns:svg="http://www.w3.org/2000/svg">
  <defs
     id="defs6" />
  <sodipodi:namedview
     id="namedview6"
     pagecolor="#ffffff"
     bordercolor="#000000"
     borderopacity="0.25"
     inkscape:showpageshadow="2"
     inkscape:pageopacity="0.0"
     inkscape:pagecheckerboard="0"
     inkscape:deskcolor="#d1d1d1"
     inkscape:document-units="pt"
     inkscape:zoom="0.1767767"
     inkscape:cx="8683.2712"
     inkscape:cy="1852.6198"
     inkscape:window-width="1920"
     inkscape:window-height="991"
     inkscape:window-x="-9"
     inkscape:window-y="-9"
     inkscape:window-maximized="1"
     inkscape:current-layer="g2" />
  <g
     id="g2"
     inkscape:label="Colors"
     transform="matrix(1.0000042,0,0,1,-2.1793274,-2105.9995)">
    <rect
       style="fill:#c99b64;fill-opacity:1;stroke-width:11.7962;stroke-linejoin:round"
       id="rect1"
       width="7931.8003"
       height="2105.9836"
       x="7.6320558"
       y="2249.9971"
       inkscape:label="Sides (color)" />
    <rect
       style="fill:#9e5e27;fill-opacity:1;stroke-width:11.6001;stroke-linejoin:round"
       id="rect3"
       width="7670.0713"
       height="2106.002"
       x="138.88823"
       y="2249.9971"
       inkscape:label="Inner sides (color)" />
    <rect
       style="fill:#864018;fill-opacity:1;stroke-width:11.4916;stroke-linejoin:round"
       id="rect2"
       width="7558.5464"
       height="2105.9966"
       x="196.95938"
       y="2249.9971"
       inkscape:label="Fond (color)" />
  </g>
  <g
     transform="translate(0.000000,4356.000000) scale(0.100000,-0.100000)"
     fill="#000000"
     stroke="none"
     id="g6">
    <path
       d="M10 31590 l0 -10530 55 0 55 0 0 10530 0 10530 -55 0 -55 0 0 -10530z"
       id="path1" />
    <path
       d="M1330 31590 l0 -10530 55 0 55 0 0 10530 0 10530 -55 0 -55 0 0 -10530z"
       id="path2" />
    <path
       d="M1870 31590 l0 -10530 55 0 55 0 0 10530 0 10530 -55 0 -55 0 0 -10530z"
       id="path3" />
    <path
       d="M77470 31590 l0 -10530 55 0 55 0 0 10530 0 10530 -55 0 -55 0 0 -10530z"
       id="path4" />
    <path
       d="M78010 31590 l0 -10530 55 0 55 0 0 10530 0 10530 -55 0 -55 0 0 -10530z"
       id="path5" />
    <path
       d="M79330 31590 l0 -10530 55 0 55 0 0 10530 0 10530 -55 0 -55 0 0 -10530z"
       id="path6" />
  </g>
</svg>
