<?xml version="1.0" standalone="no"?>
<!DOCTYPE svg PUBLIC "-//W3C//DTD SVG 20010904//EN"
 "http://www.w3.org/TR/2001/REC-SVG-20010904/DTD/svg10.dtd">
<svg version="1.0" xmlns="http://www.w3.org/2000/svg"
 width="768.000000pt" height="3930.000000pt" viewBox="0 0 768.000000 3930.000000"
 preserveAspectRatio="xMidYMid meet">

<g transform="translate(0.000000,3930.000000) scale(0.100000,-0.100000)"
fill="#000000" stroke="none">
<path d="M22 31348 c-9 -9 -12 -3503 -12 -15659 l0 -15648 26 -20 27 -21 3784
0 3784 0 24 25 25 24 0 15629 0 15629 -21 27 -20 26 -3803 0 c-2944 0 -3805
-3 -3814 -12z m7548 -15663 l0 -15575 -3725 0 -3725 0 0 15575 0 15575 3725 0
3725 0 0 -15575z"/>
<path d="M362 30288 c-9 -9 -12 -460 -12 -1969 0 -1077 3 -1964 6 -1973 6 -15
322 -16 3484 -16 3162 0 3478 1 3484 16 3 9 6 896 6 1973 0 1509 -3 1960 -12
1969 -17 17 -6939 17 -6956 0z m6908 -1973 l0 -1925 -3430 0 -3430 0 0 1925 0
1925 3430 0 3430 0 0 -1925z"/>
<path d="M362 25508 c-9 -9 -12 -460 -12 -1969 0 -1077 3 -1964 6 -1973 6 -15
322 -16 3484 -16 3162 0 3478 1 3484 16 3 9 6 896 6 1973 0 1509 -3 1960 -12
1969 -17 17 -6939 17 -6956 0z m6908 -1973 l0 -1925 -3430 0 -3430 0 0 1925 0
1925 3430 0 3430 0 0 -1925z"/>
<path d="M362 20728 c-9 -9 -12 -460 -12 -1969 0 -1077 3 -1964 6 -1973 6 -15
322 -16 3484 -16 3162 0 3478 1 3484 16 3 9 6 896 6 1973 0 1509 -3 1960 -12
1969 -17 17 -6939 17 -6956 0z m6908 -1973 l0 -1925 -3430 0 -3430 0 0 1925 0
1925 3430 0 3430 0 0 -1925z"/>
<path d="M362 15948 c-9 -9 -12 -460 -12 -1969 0 -1077 3 -1964 6 -1973 6 -15
322 -16 3484 -16 3162 0 3478 1 3484 16 3 9 6 896 6 1973 0 1509 -3 1960 -12
1969 -17 17 -6939 17 -6956 0z m6908 -1973 l0 -1925 -3430 0 -3430 0 0 1925 0
1925 3430 0 3430 0 0 -1925z"/>
<path d="M362 11168 c-9 -9 -12 -460 -12 -1969 0 -1077 3 -1964 6 -1973 6 -15
322 -16 3484 -16 3162 0 3478 1 3484 16 3 9 6 896 6 1973 0 1509 -3 1960 -12
1969 -17 17 -6939 17 -6956 0z m6908 -1973 l0 -1925 -3430 0 -3430 0 0 1925 0
1925 3430 0 3430 0 0 -1925z"/>
<path d="M362 6388 c-9 -9 -12 -460 -12 -1969 0 -1077 3 -1964 6 -1973 6 -15
322 -16 3484 -16 3162 0 3478 1 3484 16 3 9 6 896 6 1973 0 1509 -3 1960 -12
1969 -17 17 -6939 17 -6956 0z m6908 -1973 l0 -1925 -3430 0 -3430 0 0 1925 0
1925 3430 0 3430 0 0 -1925z"/>
</g>
</svg>
