<?xml version="1.0" encoding="UTF-8" standalone="no"?>
<svg
   version="1.0"
   width="768.000000pt"
   height="3930.000000pt"
   viewBox="0 0 768.000000 3930.000000"
   preserveAspectRatio="xMidYMid meet"
   id="svg2"
   sodipodi:docname="Book_grand.svg"
   inkscape:version="1.4.2 (f4327f4, 2025-05-13)"
   xmlns:inkscape="http://www.inkscape.org/namespaces/inkscape"
   xmlns:sodipodi="http://sodipodi.sourceforge.net/DTD/sodipodi-0.dtd"
   xmlns="http://www.w3.org/2000/svg"
   xmlns:svg="http://www.w3.org/2000/svg">
  <defs
     id="defs2" />
  <sodipodi:namedview
     id="namedview2"
     pagecolor="#ffffff"
     bordercolor="#000000"
     borderopacity="0.25"
     inkscape:showpageshadow="2"
     inkscape:pageopacity="0.0"
     inkscape:pagecheckerboard="0"
     inkscape:deskcolor="#d1d1d1"
     inkscape:document-units="pt"
     showgrid="false"
     inkscape:zoom="0.59007634"
     inkscape:cx="376.22251"
     inkscape:cy="2122.6067"
     inkscape:window-width="1920"
     inkscape:window-height="991"
     inkscape:window-x="-9"
     inkscape:window-y="-9"
     inkscape:window-maximized="1"
     inkscape:current-layer="svg2" />
  <rect
     style="fill:#ffffff;fill-opacity:1;stroke-width:10.964;stroke-linejoin:round"
     id="rect2"
     width="755.67871"
     height="3918.5425"
     x="7.4708452"
     y="7.021471"
     inkscape:label="Cover (color)" />
  <g
     id="g3">
    <rect
       style="fill:#dcdcdc;fill-opacity:1;stroke-width:10.964;stroke-linejoin:round"
       id="rect5"
       width="754.51276"
       height="210.77531"
       x="7.7055712"
       y="1332.2209" />
    <rect
       style="fill:#dcdcdc;fill-opacity:1;stroke-width:10.964;stroke-linejoin:round"
       id="rect4"
       width="754.51276"
       height="210.77531"
       x="7.7055712"
       y="940.21802" />
    <rect
       style="fill:#dcdcdc;fill-opacity:1;stroke-width:10.964;stroke-linejoin:round"
       id="rect3"
       width="754.51276"
       height="210.77531"
       x="7.7055712"
       y="549.31982" />
  </g>
  <g
     transform="translate(0.000000,3930.000000) scale(0.100000,-0.100000)"
     fill="#000000"
     stroke="none"
     id="g2">
    <path
       d="M22 39278 c-9 -9 -12 -4384 -12 -19624 l0 -19613 26 -20 27 -21 3784 0 3784 0 24 25 25 24 0 19594 0 19594 -21 27 -20 26 -3803 0 c-2944 0 -3805 -3 -3814 -12z m7548 -973 l0 -885 -3725 0 -3725 0 0 885 0 885 3725 0 3725 0 0 -885z m0 -2720 l0 -1755 -3725 0 -3725 0 0 1755 0 1755 3725 0 3725 0 0 -1755z m0 -2835 l0 -1000 -3725 0 -3725 0 0 1000 0 1000 3725 0 3725 0 0 -1000z m0 -1955 l0 -875 -3725 0 -3725 0 0 875 0 875 3725 0 3725 0 0 -875z m0 -1955 l0 -1000 -3725 0 -3725 0 0 1000 0 1000 3725 0 3725 0 0 -1000z m0 -1955 l0 -875 -3725 0 -3725 0 0 875 0 875 3725 0 3725 0 0 -875z m0 -1955 l0 -1000 -3725 0 -3725 0 0 1000 0 1000 3725 0 3725 0 0 -1000z m0 -2835 l0 -1755 -3725 0 -3725 0 0 1755 0 1755 3725 0 3725 0 0 -1755z m0 -10985 l0 -9150 -3725 0 -3725 0 0 9150 0 9150 3725 0 3725 0 0 -9150z m0 -10115 l0 -885 -3725 0 -3725 0 0 885 0 885 3725 0 3725 0 0 -885z"
       id="path1" />
    <path
       d="M1572 18498 c-18 -18 -18 -14758 0 -14776 17 -17 4519 -17 4536 0 18 18 18 14758 0 14776 -17 17 -4519 17 -4536 0z m4468 -7388 l0 -7320 -2200 0 -2200 0 0 7320 0 7320 2200 0 2200 0 0 -7320z"
       id="path2" />
  </g>
</svg>
