<?xml version="1.0" encoding="UTF-8" standalone="no"?>
<svg
   version="1.0"
   width="768.000000pt"
   height="3930.000000pt"
   viewBox="0 0 768.000000 3930.000000"
   preserveAspectRatio="xMidYMid meet"
   id="svg7"
   sodipodi:docname="Book_medium.svg"
   inkscape:version="1.4.2 (f4327f4, 2025-05-13)"
   xmlns:inkscape="http://www.inkscape.org/namespaces/inkscape"
   xmlns:sodipodi="http://sodipodi.sourceforge.net/DTD/sodipodi-0.dtd"
   xmlns="http://www.w3.org/2000/svg"
   xmlns:svg="http://www.w3.org/2000/svg">
  <defs
     id="defs7" />
  <sodipodi:namedview
     id="namedview7"
     pagecolor="#ffffff"
     bordercolor="#000000"
     borderopacity="0.25"
     inkscape:showpageshadow="2"
     inkscape:pageopacity="0.0"
     inkscape:pagecheckerboard="0"
     inkscape:deskcolor="#d1d1d1"
     inkscape:document-units="pt"
     inkscape:zoom="0.29503817"
     inkscape:cx="1240.5175"
     inkscape:cy="1313.3894"
     inkscape:window-width="1920"
     inkscape:window-height="991"
     inkscape:window-x="-9"
     inkscape:window-y="-9"
     inkscape:window-maximized="1"
     inkscape:current-layer="g1" />
  <g
     id="g1"
     inkscape:label="Colors"
     transform="translate(0.779155,-1.0214708)">
    <rect
       style="fill:#ffffff;fill-opacity:1;stroke-width:9.79027;stroke-linejoin:round"
       id="rect2"
       width="755.67871"
       height="3124.4714"
       x="7.4708452"
       y="801.09247"
       inkscape:label="Cover (color)" />
    <g
       id="g3">
      <rect
         style="fill:#dcdcdc;stroke-width:10.964;stroke-linejoin:round"
         id="rect7"
         width="691.34955"
         height="390.18845"
         x="37.277218"
         y="904.1792" />
      <rect
         style="fill:#dcdcdc;stroke-width:10.964;stroke-linejoin:round"
         id="rect8"
         width="691.34955"
         height="390.18845"
         x="37.509064"
         y="1382.5583" />
      <rect
         style="fill:#dcdcdc;stroke-width:10.964;stroke-linejoin:round"
         id="rect9"
         width="691.34955"
         height="390.18845"
         x="37.522293"
         y="1860.3217" />
      <rect
         style="fill:#dcdcdc;stroke-width:10.964;stroke-linejoin:round"
         id="rect10"
         width="691.34955"
         height="390.18845"
         x="37.971668"
         y="2338.0066" />
      <rect
         style="fill:#dcdcdc;stroke-width:10.964;stroke-linejoin:round"
         id="rect11"
         width="691.34955"
         height="390.18845"
         x="37.435841"
         y="2816.2996" />
      <rect
         style="fill:#dcdcdc;stroke-width:10.964;stroke-linejoin:round"
         id="rect12"
         width="691.34955"
         height="390.18845"
         x="37.857128"
         y="3294.5742" />
    </g>
  </g>
  <g
     transform="translate(0.000000,3930.000000) scale(0.100000,-0.100000)"
     fill="#000000"
     stroke="none"
     id="g7">
    <path
       d="M22 31348 c-9 -9 -12 -3503 -12 -15659 l0 -15648 26 -20 27 -21 3784 0 3784 0 24 25 25 24 0 15629 0 15629 -21 27 -20 26 -3803 0 c-2944 0 -3805 -3 -3814 -12z m7548 -15663 l0 -15575 -3725 0 -3725 0 0 15575 0 15575 3725 0 3725 0 0 -15575z"
       id="path1" />
    <path
       d="M362 30288 c-9 -9 -12 -460 -12 -1969 0 -1077 3 -1964 6 -1973 6 -15 322 -16 3484 -16 3162 0 3478 1 3484 16 3 9 6 896 6 1973 0 1509 -3 1960 -12 1969 -17 17 -6939 17 -6956 0z m6908 -1973 l0 -1925 -3430 0 -3430 0 0 1925 0 1925 3430 0 3430 0 0 -1925z"
       id="path2" />
    <path
       d="M362 25508 c-9 -9 -12 -460 -12 -1969 0 -1077 3 -1964 6 -1973 6 -15 322 -16 3484 -16 3162 0 3478 1 3484 16 3 9 6 896 6 1973 0 1509 -3 1960 -12 1969 -17 17 -6939 17 -6956 0z m6908 -1973 l0 -1925 -3430 0 -3430 0 0 1925 0 1925 3430 0 3430 0 0 -1925z"
       id="path3" />
    <path
       d="M362 20728 c-9 -9 -12 -460 -12 -1969 0 -1077 3 -1964 6 -1973 6 -15 322 -16 3484 -16 3162 0 3478 1 3484 16 3 9 6 896 6 1973 0 1509 -3 1960 -12 1969 -17 17 -6939 17 -6956 0z m6908 -1973 l0 -1925 -3430 0 -3430 0 0 1925 0 1925 3430 0 3430 0 0 -1925z"
       id="path4" />
    <path
       d="M362 15948 c-9 -9 -12 -460 -12 -1969 0 -1077 3 -1964 6 -1973 6 -15 322 -16 3484 -16 3162 0 3478 1 3484 16 3 9 6 896 6 1973 0 1509 -3 1960 -12 1969 -17 17 -6939 17 -6956 0z m6908 -1973 l0 -1925 -3430 0 -3430 0 0 1925 0 1925 3430 0 3430 0 0 -1925z"
       id="path5" />
    <path
       d="M362 11168 c-9 -9 -12 -460 -12 -1969 0 -1077 3 -1964 6 -1973 6 -15 322 -16 3484 -16 3162 0 3478 1 3484 16 3 9 6 896 6 1973 0 1509 -3 1960 -12 1969 -17 17 -6939 17 -6956 0z m6908 -1973 l0 -1925 -3430 0 -3430 0 0 1925 0 1925 3430 0 3430 0 0 -1925z"
       id="path6" />
    <path
       d="M362 6388 c-9 -9 -12 -460 -12 -1969 0 -1077 3 -1964 6 -1973 6 -15 322 -16 3484 -16 3162 0 3478 1 3484 16 3 9 6 896 6 1973 0 1509 -3 1960 -12 1969 -17 17 -6939 17 -6956 0z m6908 -1973 l0 -1925 -3430 0 -3430 0 0 1925 0 1925 3430 0 3430 0 0 -1925z"
       id="path7" />
  </g>
</svg>
