<?xml version="1.0" encoding="UTF-8" standalone="no"?>
<svg
   version="1.0"
   width="768.000000pt"
   height="3930.000000pt"
   viewBox="0 0 768.000000 3930.000000"
   preserveAspectRatio="xMidYMid meet"
   id="svg6"
   sodipodi:docname="Book_poche.svg"
   inkscape:version="1.4.2 (f4327f4, 2025-05-13)"
   xmlns:inkscape="http://www.inkscape.org/namespaces/inkscape"
   xmlns:sodipodi="http://sodipodi.sourceforge.net/DTD/sodipodi-0.dtd"
   xmlns="http://www.w3.org/2000/svg"
   xmlns:svg="http://www.w3.org/2000/svg">
  <defs
     id="defs6" />
  <sodipodi:namedview
     id="namedview6"
     pagecolor="#ffffff"
     bordercolor="#000000"
     borderopacity="0.25"
     inkscape:showpageshadow="2"
     inkscape:pageopacity="0.0"
     inkscape:pagecheckerboard="0"
     inkscape:deskcolor="#d1d1d1"
     inkscape:document-units="pt"
     inkscape:zoom="0.20862349"
     inkscape:cx="958.66482"
     inkscape:cy="2533.2718"
     inkscape:window-width="1920"
     inkscape:window-height="991"
     inkscape:window-x="-9"
     inkscape:window-y="-9"
     inkscape:window-maximized="1"
     inkscape:current-layer="g1" />
  <g
     id="g1"
     inkscape:label="Colors"
     transform="matrix(1,0,0,0.74941376,0.779155,980.14982)">
    <rect
       style="fill:#ffffff;fill-opacity:1;stroke-width:9.79027;stroke-linejoin:round"
       id="rect2"
       width="755.67871"
       height="3124.4714"
       x="7.4708452"
       y="809.57257"
       inkscape:label="Cover (color)" />
    <g
       id="g3"
       transform="matrix(1,0,0,1.1570181,0,-656.59144)">
      <rect
         style="fill:#dcdcdc;stroke-width:10.8026;stroke-linejoin:round"
         id="rect8"
         width="691.34955"
         height="378.78677"
         x="37.509064"
         y="1382.5583" />
      <rect
         style="fill:#dcdcdc;stroke-width:10.8423;stroke-linejoin:round"
         id="rect9"
         width="691.34955"
         height="381.57654"
         x="37.522293"
         y="1861.7875" />
      <rect
         style="fill:#dcdcdc;stroke-width:10.8432;stroke-linejoin:round"
         id="rect10"
         width="691.34955"
         height="381.63718"
         x="37.971668"
         y="2342.6709" />
      <rect
         style="fill:#dcdcdc;stroke-width:10.8395;stroke-linejoin:round"
         id="rect11"
         width="691.34955"
         height="381.37805"
         x="37.435841"
         y="2823.8142" />
      <rect
         style="fill:#dcdcdc;stroke-width:10.8026;stroke-linejoin:round"
         id="rect12"
         width="691.34955"
         height="378.78677"
         x="37.857128"
         y="3305.9758" />
    </g>
  </g>
  <g
     transform="translate(0.000000,3930.000000) scale(0.100000,-0.100000)"
     fill="#000000"
     stroke="none"
     id="g6">
    <path
       d="M22 23518 c-9 -9 -12 -2633 -12 -11744 l0 -11733 26 -20 27 -21 3784 0 3784 0 24 25 25 24 0 11714 0 11714 -21 27 -20 26 -3803 0 c-2944 0 -3805 -3 -3814 -12z m7548 -11748 l0 -11660 -3725 0 -3725 0 0 11660 0 11660 3725 0 3725 0 0 -11660z"
       id="path1" />
    <path
       d="M362 22458 c-9 -9 -12 -392 -12 -1664 0 -909 3 -1659 6 -1668 6 -15 322 -16 3484 -16 3162 0 3478 1 3484 16 3 9 6 759 6 1668 0 1272 -3 1655 -12 1664 -17 17 -6939 17 -6956 0z m6908 -1668 l0 -1620 -3430 0 -3430 0 0 1620 0 1620 3430 0 3430 0 0 -1620z"
       id="path2" />
    <path
       d="M362 18288 c-9 -9 -12 -392 -12 -1664 0 -909 3 -1659 6 -1668 6 -15 322 -16 3484 -16 3162 0 3478 1 3484 16 3 9 6 759 6 1668 0 1272 -3 1655 -12 1664 -17 17 -6939 17 -6956 0z m6908 -1668 l0 -1620 -3430 0 -3430 0 0 1620 0 1620 3430 0 3430 0 0 -1620z"
       id="path3" />
    <path
       d="M362 14118 c-9 -9 -12 -392 -12 -1664 0 -909 3 -1659 6 -1668 6 -15 322 -16 3484 -16 3162 0 3478 1 3484 16 3 9 6 759 6 1668 0 1272 -3 1655 -12 1664 -17 17 -6939 17 -6956 0z m6908 -1668 l0 -1620 -3430 0 -3430 0 0 1620 0 1620 3430 0 3430 0 0 -1620z"
       id="path4" />
    <path
       d="M362 9948 c-9 -9 -12 -392 -12 -1664 0 -909 3 -1659 6 -1668 6 -15 322 -16 3484 -16 3162 0 3478 1 3484 16 3 9 6 759 6 1668 0 1272 -3 1655 -12 1664 -17 17 -6939 17 -6956 0z m6908 -1668 l0 -1620 -3430 0 -3430 0 0 1620 0 1620 3430 0 3430 0 0 -1620z"
       id="path5" />
    <path
       d="M362 5778 c-9 -9 -12 -392 -12 -1664 0 -909 3 -1659 6 -1668 6 -15 322 -16 3484 -16 3162 0 3478 1 3484 16 3 9 6 759 6 1668 0 1272 -3 1655 -12 1664 -17 17 -6939 17 -6956 0z m6908 -1668 l0 -1620 -3430 0 -3430 0 0 1620 0 1620 3430 0 3430 0 0 -1620z"
       id="path6" />
  </g>
</svg>
