<?xml version="1.0" standalone="no"?>
<!DOCTYPE svg PUBLIC "-//W3C//DTD SVG 20010904//EN"
 "http://www.w3.org/TR/2001/REC-SVG-20010904/DTD/svg10.dtd">
<svg version="1.0" xmlns="http://www.w3.org/2000/svg"
 width="768.000000pt" height="3930.000000pt" viewBox="0 0 768.000000 3930.000000"
 preserveAspectRatio="xMidYMid meet">

<g transform="translate(0.000000,3930.000000) scale(0.100000,-0.100000)"
fill="#000000" stroke="none">
<path d="M22 39278 c-9 -9 -12 -4384 -12 -19624 l0 -19613 26 -20 27 -21 3784
0 3784 0 24 25 25 24 0 19594 0 19594 -21 27 -20 26 -3803 0 c-2944 0 -3805
-3 -3814 -12z m7548 -973 l0 -885 -3725 0 -3725 0 0 885 0 885 3725 0 3725 0
0 -885z m0 -2720 l0 -1755 -3725 0 -3725 0 0 1755 0 1755 3725 0 3725 0 0
-1755z m0 -2835 l0 -1000 -3725 0 -3725 0 0 1000 0 1000 3725 0 3725 0 0
-1000z m0 -1955 l0 -875 -3725 0 -3725 0 0 875 0 875 3725 0 3725 0 0 -875z
m0 -1955 l0 -1000 -3725 0 -3725 0 0 1000 0 1000 3725 0 3725 0 0 -1000z m0
-1955 l0 -875 -3725 0 -3725 0 0 875 0 875 3725 0 3725 0 0 -875z m0 -1955 l0
-1000 -3725 0 -3725 0 0 1000 0 1000 3725 0 3725 0 0 -1000z m0 -2835 l0
-1755 -3725 0 -3725 0 0 1755 0 1755 3725 0 3725 0 0 -1755z m0 -10985 l0
-9150 -3725 0 -3725 0 0 9150 0 9150 3725 0 3725 0 0 -9150z m0 -10115 l0
-885 -3725 0 -3725 0 0 885 0 885 3725 0 3725 0 0 -885z"/>
<path d="M1572 18498 c-18 -18 -18 -14758 0 -14776 17 -17 4519 -17 4536 0 18
18 18 14758 0 14776 -17 17 -4519 17 -4536 0z m4468 -7388 l0 -7320 -2200 0
-2200 0 0 7320 0 7320 2200 0 2200 0 0 -7320z"/>
</g>
</svg>
